<svg width="243" height="136" viewBox="0 0 243 136" fill="none" xmlns="http://www.w3.org/2000/svg">
<g clip-path="url(#clip0)">
<path d="M63.7131 42.487C71.3993 42.487 77.6301 36.2172 77.6301 28.4829C77.6301 20.7487 71.3993 14.4789 63.7131 14.4789C56.027 14.4789 49.7961 20.7487 49.7961 28.4829C49.7961 36.2172 56.027 42.487 63.7131 42.487Z" fill="#FF6584"/>
<path d="M107.355 71.6383H39.0828C38.9973 71.6394 38.9119 71.6326 38.8276 71.618L71.1174 15.3374C71.3145 14.9869 71.6005 14.6954 71.9462 14.4925C72.2919 14.2896 72.6849 14.1827 73.0851 14.1827C73.4854 14.1827 73.8784 14.2896 74.2241 14.4925C74.5698 14.6954 74.8558 14.9869 75.0529 15.3374L96.7234 53.106L97.7616 54.9133L107.355 71.6383Z" fill="#3F3D56"/>
<path opacity="0.2" d="M107.355 71.6382H84.0452L95.488 54.9131L96.3115 53.7084L96.7233 53.1062L97.7615 54.9131L107.355 71.6382Z" fill="black"/>
<path d="M145.369 71.6383H86.3186L97.7614 54.9133L98.5848 53.7084L113.496 31.9125C114.473 30.484 116.825 30.3951 117.974 31.6431C118.052 31.7282 118.123 31.8182 118.189 31.9125L145.369 71.6383Z" fill="#3F3D56"/>
<path d="M162.703 62.3794C165.019 62.3794 166.896 60.4901 166.896 58.1596C166.896 55.829 165.019 53.9397 162.703 53.9397C160.387 53.9397 158.509 55.829 158.509 58.1596C158.509 60.4901 160.387 62.3794 162.703 62.3794Z" fill="#3C2A4D"/>
<path d="M163.107 70.8702H162.248L162.639 57.524L163.107 70.8702Z" fill="#3F3D56"/>
<path d="M162.715 60.0535L163.637 58.7696L162.702 60.3713L162.602 60.1933L162.715 60.0535Z" fill="#3F3D56"/>
<path d="M162.614 61.3498L161.692 60.0662L162.627 61.6676L162.728 61.4897L162.614 61.3498Z" fill="#3F3D56"/>
<path d="M201.171 62.3794C203.488 62.3794 205.365 60.4901 205.365 58.1596C205.365 55.829 203.488 53.9397 201.171 53.9397C198.855 53.9397 196.978 55.829 196.978 58.1596C196.978 60.4901 198.855 62.3794 201.171 62.3794Z" fill="#3C2A4D"/>
<path d="M201.576 70.8702H200.717L201.108 57.524L201.576 70.8702Z" fill="#3F3D56"/>
<path d="M201.184 60.0535L202.106 58.7696L201.171 60.3713L201.07 60.1933L201.184 60.0535Z" fill="#3F3D56"/>
<path d="M201.083 61.3498L200.161 60.0662L201.096 61.6676L201.197 61.4897L201.083 61.3498Z" fill="#3F3D56"/>
<path d="M174.851 58.3301C178.272 58.3301 181.045 55.5398 181.045 52.0977C181.045 48.6556 178.272 45.8653 174.851 45.8653C171.43 45.8653 168.657 48.6556 168.657 52.0977C168.657 55.5398 171.43 58.3301 174.851 58.3301Z" fill="#3C2A4D"/>
<path d="M175.448 70.8702H174.179L174.757 51.1591L175.448 70.8702Z" fill="#3F3D56"/>
<path d="M174.869 54.8946L176.231 52.9988L174.851 55.3642L174.701 55.1013L174.869 54.8946Z" fill="#3F3D56"/>
<path d="M174.72 56.8095L173.358 54.9137L174.739 57.2788L174.888 57.0161L174.72 56.8095Z" fill="#3F3D56"/>
<path d="M189.955 58.3301C193.376 58.3301 196.149 55.5398 196.149 52.0977C196.149 48.6556 193.376 45.8653 189.955 45.8653C186.534 45.8653 183.761 48.6556 183.761 52.0977C183.761 55.5398 186.534 58.3301 189.955 58.3301Z" fill="#3C2A4D"/>
<path d="M190.552 70.8702H189.284L189.862 51.1591L190.552 70.8702Z" fill="#3F3D56"/>
<path d="M189.974 54.8946L191.336 52.9988L189.955 55.3642L189.806 55.1013L189.974 54.8946Z" fill="#3F3D56"/>
<path d="M189.825 56.8095L188.463 54.9137L189.843 57.2788L189.992 57.0161L189.825 56.8095Z" fill="#3F3D56"/>
<path d="M150.778 58.3301C154.199 58.3301 156.972 55.5398 156.972 52.0977C156.972 48.6556 154.199 45.8653 150.778 45.8653C147.357 45.8653 144.584 48.6556 144.584 52.0977C144.584 55.5398 147.357 58.3301 150.778 58.3301Z" fill="#3C2A4D"/>
<path d="M151.375 70.8702H150.106L150.685 51.1591L151.375 70.8702Z" fill="#3F3D56"/>
<path d="M150.797 54.8946L152.159 52.9988L150.778 55.3642L150.629 55.1013L150.797 54.8946Z" fill="#3F3D56"/>
<path d="M150.648 56.8095L149.286 54.9137L150.666 57.2788L150.815 57.0161L150.648 56.8095Z" fill="#3F3D56"/>
<path d="M224.055 135.628H21.9282C19.3815 135.628 16.8598 135.123 14.5071 134.143C12.1543 133.162 10.0165 131.725 8.21575 129.913C6.41502 128.101 4.98659 125.949 4.01204 123.582C3.03749 121.214 2.53589 118.677 2.53589 116.114C2.53589 113.552 3.03749 111.014 4.01204 108.647C4.98659 106.279 6.41502 104.128 8.21575 102.316C10.0165 100.504 12.1543 99.0667 14.5071 98.0861C16.8598 97.1054 19.3815 96.6007 21.9282 96.6007H223.608C225.586 96.6007 227.483 95.8099 228.882 94.4024C230.28 92.9949 231.066 91.086 231.066 89.0954C231.066 87.1049 230.28 85.1959 228.882 83.7884C227.483 82.3809 225.586 81.5902 223.608 81.5902H15.2155V69.5818H223.608C228.751 69.5818 233.683 71.6377 237.32 75.2972C240.957 78.9567 243 83.9201 243 89.0954C243 94.2708 240.957 99.2341 237.32 102.894C233.683 106.553 228.751 108.609 223.608 108.609H21.9282C19.95 108.609 18.0529 109.4 16.6542 110.807C15.2554 112.215 14.4696 114.124 14.4696 116.114C14.4696 118.105 15.2554 120.014 16.6542 121.421C18.0529 122.829 19.95 123.62 21.9282 123.62H224.055V135.628Z" fill="#E6E6E6"/>
<path d="M31.9227 75.2858H22.6741V75.8862H31.9227V75.2858Z" fill="white"/>
<path d="M58.1768 75.2858H48.9282V75.8862H58.1768V75.2858Z" fill="white"/>
<path d="M84.431 75.2858H75.1824V75.8862H84.431V75.2858Z" fill="white"/>
<path d="M110.685 75.2858H101.437V75.8862H110.685V75.2858Z" fill="white"/>
<path d="M136.939 75.2858H127.691V75.8862H136.939V75.2858Z" fill="white"/>
<path d="M163.193 75.2858H153.945V75.8862H163.193V75.2858Z" fill="white"/>
<path d="M189.448 75.2858H180.199V75.8862H189.448V75.2858Z" fill="white"/>
<path d="M215.702 75.2858H206.453V75.8862H215.702V75.2858Z" fill="white"/>
<path d="M31.9227 102.305H22.6741V102.905H31.9227V102.305Z" fill="white"/>
<path d="M58.1768 102.305H48.9282V102.905H58.1768V102.305Z" fill="white"/>
<path d="M84.431 102.305H75.1824V102.905H84.431V102.305Z" fill="white"/>
<path d="M110.685 102.305H101.437V102.905H110.685V102.305Z" fill="white"/>
<path d="M136.939 102.305H127.691V102.905H136.939V102.305Z" fill="white"/>
<path d="M163.193 102.305H153.945V102.905H163.193V102.305Z" fill="white"/>
<path d="M189.448 102.305H180.199V102.905H189.448V102.305Z" fill="white"/>
<path d="M215.702 102.305H206.453V102.905H215.702V102.305Z" fill="white"/>
<path d="M31.9227 129.324H22.6741V129.924H31.9227V129.324Z" fill="white"/>
<path d="M58.1768 129.324H48.9282V129.924H58.1768V129.324Z" fill="white"/>
<path d="M84.431 129.324H75.1824V129.924H84.431V129.324Z" fill="white"/>
<path d="M110.685 129.324H101.437V129.924H110.685V129.324Z" fill="white"/>
<path d="M136.939 129.324H127.691V129.924H136.939V129.324Z" fill="white"/>
<path d="M163.193 129.324H153.945V129.924H163.193V129.324Z" fill="white"/>
<path d="M189.448 129.324H180.199V129.924H189.448V129.324Z" fill="white"/>
<path d="M215.702 129.324H206.453V129.924H215.702V129.324Z" fill="white"/>
<path d="M162.265 23.8283C163.237 23.8274 164.192 24.0759 165.042 24.5504H159.495C160.342 24.0761 161.296 23.8275 162.265 23.8283Z" fill="#E6E6E6"/>
<path d="M151.501 23.1062C153.124 23.1043 154.708 23.6089 156.034 24.5504H146.975C148.299 23.61 149.88 23.1055 151.501 23.1062Z" fill="#E6E6E6"/>
<path d="M90.5301 13.9655C90.7269 10.4631 92.1535 7.14486 94.5556 4.60242C96.9576 2.05997 100.179 0.45859 103.645 0.0837818C107.111 -0.291026 110.597 0.585102 113.481 2.55596C116.365 4.52682 118.46 7.46431 119.392 10.8447C119.57 10.8382 119.748 10.831 119.928 10.831C123.106 10.8316 126.198 11.8677 128.743 13.7841C131.287 15.7006 133.146 18.3945 134.042 21.4627C136.148 20.5316 138.501 20.3296 140.734 20.8883C142.966 21.4471 144.951 22.735 146.378 24.5504H100.492C99.153 24.5542 97.8273 24.2862 96.594 23.7623C95.3607 23.2385 94.2452 22.4696 93.3141 21.5017C92.3831 20.5338 91.6557 19.3868 91.1755 18.1294C90.6954 16.872 90.4723 15.53 90.5197 14.1838C90.5226 14.1112 90.5261 14.0384 90.5301 13.9655Z" fill="#E6E6E6"/>
<path d="M165.613 34.6359C164.642 34.6349 163.686 34.8835 162.836 35.3579H168.383C167.536 34.8836 166.583 34.6351 165.613 34.6359Z" fill="#E6E6E6"/>
<path d="M176.377 33.9138C174.754 33.9119 173.17 34.4164 171.844 35.3579H180.904C179.58 34.4175 177.998 33.913 176.377 33.9138Z" fill="#E6E6E6"/>
<path d="M237.348 24.7731C237.151 21.2707 235.725 17.9524 233.323 15.41C230.921 12.8675 227.699 11.2661 224.233 10.8913C220.767 10.5165 217.281 11.3927 214.397 13.3635C211.513 15.3344 209.418 18.2719 208.487 21.6522C208.308 21.6458 208.13 21.6386 207.951 21.6386C204.772 21.6392 201.68 22.6752 199.136 24.5917C196.591 26.5081 194.732 29.202 193.836 32.2703C191.73 31.3392 189.377 31.1372 187.145 31.6959C184.913 32.2546 182.928 33.5425 181.5 35.3579H227.387C228.725 35.3617 230.051 35.0937 231.284 34.5698C232.518 34.046 233.633 33.2771 234.564 32.3092C235.495 31.3414 236.223 30.1944 236.703 28.937C237.183 27.6796 237.406 26.3376 237.359 24.9914C237.356 24.9187 237.352 24.846 237.348 24.7731Z" fill="#E6E6E6"/>
<path d="M206.756 127.236L212.089 127.239L212.09 126.387L206.757 126.384L206.756 127.236Z" fill="#3F3D56"/>
<path d="M168.198 126.577L169.298 126.833L211.116 126.855L211.492 125.974C212.148 124.461 212.373 122.795 212.142 121.162C211.962 119.944 211.511 118.734 210.486 118.209L208.63 105.771L185.494 105.73L176.543 112.995C176.543 112.995 172.321 112.918 170.027 115.792C169.199 116.86 168.711 118.155 168.625 119.507L168.534 121.002L168.198 126.577Z" fill="#3C2A4D"/>
<path d="M177.383 131.565C180.234 131.565 182.546 129.238 182.546 126.369C182.546 123.499 180.234 121.173 177.383 121.173C174.531 121.173 172.219 123.499 172.219 126.369C172.219 129.238 174.531 131.565 177.383 131.565Z" fill="#3F3D56"/>
<path d="M177.383 129.103C178.884 129.103 180.1 127.879 180.1 126.369C180.1 124.858 178.884 123.634 177.383 123.634C175.882 123.634 174.665 124.858 174.665 126.369C174.665 127.879 175.882 129.103 177.383 129.103Z" fill="#CCCCCC"/>
<path d="M202.863 131.578C205.715 131.578 208.027 129.252 208.027 126.382C208.027 123.513 205.715 121.186 202.863 121.186C200.011 121.186 197.699 123.513 197.699 126.382C197.699 129.252 200.011 131.578 202.863 131.578Z" fill="#3F3D56"/>
<path d="M202.863 129.117C204.364 129.117 205.581 127.893 205.581 126.382C205.581 124.872 204.364 123.648 202.863 123.648C201.362 123.648 200.145 124.872 200.145 126.382C200.145 127.893 201.362 129.117 202.863 129.117Z" fill="#CCCCCC"/>
<path d="M180.1 112.146L192.591 112.151H194.116L196.69 112.153V111.964L196.692 109.686L196.694 107.128H194.981L193.456 107.126L190.755 107.124H189.23L186.112 107.122L180.1 112.146Z" fill="white"/>
<path d="M198.723 112.155L205.325 112.158L205.326 110.855V108.577L205.328 107.133H204.361L202.837 107.131L198.725 107.13L198.723 112.155Z" fill="white"/>
<path d="M195.841 117.52L196.688 117.52L196.689 115.902L195.842 115.901L195.841 117.52Z" fill="#3F3D56"/>
<path d="M183.484 114.446L183.484 113.595L181.876 113.594L181.876 114.446L183.484 114.446Z" fill="#3F3D56"/>
<path d="M182.892 113.969L182.798 113.969C182.566 113.969 182.336 113.923 182.121 113.833C181.907 113.744 181.712 113.612 181.548 113.447C181.384 113.281 181.253 113.085 181.165 112.869C181.076 112.653 181.03 112.422 181.03 112.188C181.03 111.954 181.076 111.722 181.165 111.507C181.254 111.291 181.385 111.094 181.549 110.929C181.713 110.764 181.909 110.633 182.123 110.544C182.338 110.454 182.568 110.408 182.8 110.408L182.893 110.408L182.892 113.969Z" fill="#3F3D56"/>
<path d="M168.534 121.002C169.174 121.072 169.819 120.912 170.353 120.551C170.888 120.19 171.279 119.651 171.457 119.028C171.636 118.406 171.59 117.74 171.328 117.148C171.067 116.556 170.606 116.075 170.027 115.792C169.199 116.86 168.711 118.155 168.625 119.507L168.534 121.002Z" fill="#3F3D56"/>
<path d="M193.456 107.126L196.69 111.964L196.692 109.686L194.981 107.128L193.456 107.126Z" fill="#F2F2F2"/>
<path d="M202.836 107.131L205.326 110.855V108.577L204.361 107.133L202.836 107.131Z" fill="#F2F2F2"/>
<path d="M189.23 107.124L192.591 112.151H194.116L190.755 107.124H189.23Z" fill="#F2F2F2"/>
<path d="M13.7238 85.7931C21.3032 85.7931 27.4475 79.6104 27.4475 71.9835C27.4475 64.3566 21.3032 58.1739 13.7238 58.1739C6.14434 58.1739 0 64.3566 0 71.9835C0 79.6104 6.14434 85.7931 13.7238 85.7931Z" fill="#3F3D56"/>
<path d="M13.7809 76.141L6.91307 69.2302C6.68966 69.0049 6.56428 68.6995 6.56445 68.3813C6.56463 68.063 6.69035 67.7578 6.914 67.5328C7.13766 67.3077 7.44095 67.1812 7.75724 67.181C8.07354 67.1808 8.37696 67.307 8.60086 67.5318L13.6667 72.6294L29.8321 54.0798C30.0409 53.8409 30.3355 53.6951 30.651 53.6745C30.9665 53.6539 31.2773 53.7602 31.515 53.97C31.7528 54.1798 31.8981 54.4759 31.919 54.7934C31.9399 55.1109 31.8347 55.4238 31.6266 55.6633L13.7809 76.141Z" fill="#3C2A4D"/>
</g>
<defs>
<clipPath id="clip0">
<rect width="243" height="135.628" fill="white"/>
</clipPath>
</defs>
</svg>
