<svg width="243" height="139" viewBox="0 0 243 139" fill="none" xmlns="http://www.w3.org/2000/svg">
<g clip-path="url(#clip0)">
<path opacity="0.1" d="M146.08 100.186C150.775 99.9172 156.599 96.724 161.128 95.3117C166.488 93.6444 171.869 92.0404 177.271 90.4995C196.078 85.1328 215.087 80.56 234.298 76.781C236.09 76.4274 237.886 76.0823 239.684 75.7457C236.883 69.675 232.543 64.4475 227.097 60.5851C227.236 59.2561 227.307 57.9209 227.309 56.5846C227.309 35.4657 210.48 18.3453 189.712 18.3453C183.318 18.3385 177.032 19.9935 171.466 23.1489C156.767 13.4522 137.582 7.58351 116.591 7.58351C86.7643 7.58351 60.5802 19.4338 45.7431 37.2785L115.474 49.0926L158.241 56.3353C109.486 57.7945 60.5802 59.2452 11.9653 55.8198C5.54789 62.047 1.48613 70.316 0.474153 79.2135C-0.537819 88.1111 1.56282 97.085 6.41708 104.601C6.41708 105.366 6.44894 106.125 6.5063 106.877C7.74466 107.232 8.94054 107.577 10.0132 107.803C27.2342 111.451 44.5657 114.505 62.0076 116.963C49.1545 124.911 33.5018 126.036 18.6754 129.401C25.855 135.345 35.6047 138.987 46.3485 138.987H206.321C223.643 138.987 237.683 126.894 237.683 111.974C240.283 107.675 242.015 102.906 242.781 97.9382C210.728 101.042 178.276 98.3472 146.08 100.186Z" fill="#3C2A4D"/>
<path opacity="0.1" d="M243 91.5838C243.017 85.4348 241.559 79.3718 238.75 73.9063C235.94 68.4408 231.861 63.7331 226.857 60.1804C226.995 58.852 227.066 57.5175 227.069 56.182C227.069 35.0631 210.231 17.9491 189.472 17.9491C183.078 17.9422 176.791 19.5964 171.224 22.7506C156.525 13.0496 137.337 7.17877 116.347 7.17877C82.2036 7.17877 52.8142 22.7186 39.7806 45.0027C39.0562 44.9601 38.3276 44.9366 37.5927 44.9366C16.8315 44.9366 -0.00432112 62.0571 -0.00432112 83.1759C-0.018873 90.6355 2.13022 97.9383 6.18113 104.195C6.18113 123.196 24.0641 138.6 46.1147 138.6H206.091C223.411 138.6 237.452 126.504 237.452 111.584C241.094 105.554 243.014 98.6347 243 91.5838Z" fill="#3C2A4D"/>
<path d="M198.453 68.1558C198.149 67.922 197.793 67.7656 197.416 67.7C197.019 67.6084 196.613 67.5508 196.21 67.4869L190.98 66.7307C190.452 66.6324 189.914 66.6038 189.379 66.6455C189.11 66.6676 188.849 66.743 188.609 66.8673C188.37 66.9917 188.158 67.1625 187.985 67.3698C187.829 67.5627 187.744 67.8032 187.743 68.0515C187.772 68.3013 187.853 68.5422 187.981 68.7587C188.031 68.8598 188.075 68.9645 188.11 69.0718C188.16 69.3128 188.223 69.5509 188.297 69.7854C188.32 69.8362 188.35 69.8835 188.387 69.926C188.387 69.9381 188.387 69.9502 188.387 69.9622C188.329 70.2562 188.514 70.563 188.431 70.8463C188.359 71.0891 188.123 71.2361 187.974 71.4385C187.875 71.582 187.82 71.7517 187.817 71.9263C187.813 72.1009 187.86 72.2728 187.953 72.4205C188.113 72.6676 188.401 72.8359 188.484 73.1192C188.593 73.492 188.299 73.852 188.038 74.1396C187.558 74.669 187.113 75.2305 186.708 75.8203C186.595 75.9654 186.521 76.1381 186.496 76.3209C186.473 76.6916 186.827 77.0175 186.766 77.386C186.717 77.6757 186.434 77.8525 186.19 78.0251C185.287 78.6215 184.563 79.5801 184.491 80.6644C184.259 78.9393 183.546 77.3148 182.435 75.9779C182.131 75.6115 181.798 75.243 181.672 74.7786C181.625 74.5933 181.617 74.3952 181.553 74.2163C181.341 73.6518 180.665 73.4089 180.37 72.8891C180.158 72.5227 180.158 72.052 179.894 71.7303C179.631 71.4086 179.217 71.3362 178.989 71.0252C178.876 70.8145 178.779 70.5951 178.701 70.3691C178.605 70.1848 178.471 70.0234 178.308 69.8962C178.276 69.8711 178.244 69.8476 178.21 69.8259C178.245 69.7943 178.273 69.7555 178.293 69.7122C178.312 69.6689 178.322 69.622 178.322 69.5745C178.322 69.3253 178.076 69.1613 177.862 69.0377C177.585 68.8801 177.316 68.7097 177.052 68.5329C177.339 68.3987 177.589 68.1943 177.777 67.9386C178.012 67.557 178.11 67.1056 178.053 66.6604C178.038 66.3011 177.904 65.9569 177.672 65.6827C177.539 65.5399 177.371 65.4377 177.231 65.3035C176.867 64.9477 176.744 64.4216 176.593 63.9359C176.394 63.2968 176.081 62.6258 175.499 62.2871C175.219 62.1231 174.892 62.0464 174.618 61.8739C174.344 61.7013 174.115 61.3754 174.21 61.0623C174.274 60.8492 174.471 60.7023 174.605 60.5212C174.765 60.2871 174.826 59.9992 174.776 59.72C174.725 59.4409 174.567 59.193 174.335 59.03C174.178 58.9299 173.985 58.8426 173.953 58.6594C173.83 58.6274 173.719 58.5612 173.631 58.4685C173.544 58.3758 173.485 58.2603 173.46 58.1354C173.413 57.8848 173.413 57.6275 173.46 57.377C173.516 56.9808 173.57 56.586 173.624 56.1926C173.717 56.2316 173.818 56.2517 173.919 56.2517C174.02 56.2517 174.121 56.2316 174.214 56.1926C174.398 56.4918 174.612 56.7715 174.852 57.0277C175.498 57.7937 176.002 58.6704 176.338 59.6158C176.46 59.9567 176.583 60.338 176.897 60.5191C177.005 60.5808 177.129 60.6128 177.235 60.6788C177.366 60.7704 177.478 60.886 177.566 61.0197C177.821 61.3584 178.076 61.6949 178.329 62.0336L178.342 62.0848C178.348 62.1147 178.36 62.1435 178.376 62.17C178.423 62.2231 178.488 62.2565 178.558 62.2637C179.34 62.4448 180.217 62.6109 180.895 62.1827C181.507 61.7993 181.774 61.041 182.292 60.534C182.66 60.174 183.18 59.8949 183.284 59.3879C183.16 59.3495 183.038 59.3047 182.919 59.2537C183.025 59.1472 183.131 59.0237 183.276 58.8831C183.486 58.677 183.675 58.4508 183.841 58.2078C184.02 57.9079 184.163 57.5875 184.266 57.2535C184.675 56.0833 185.086 54.9124 185.498 53.7407C185.693 53.1869 185.889 52.6288 186.135 52.0898C186.39 51.5062 186.691 50.9459 186.97 50.3729C187.688 48.8826 188.242 47.3184 188.622 45.7078C188.69 45.488 188.712 45.2569 188.688 45.0282C188.629 44.6597 188.35 44.37 188.085 44.108C187.818 43.8181 187.514 43.5652 187.18 43.356C187.013 43.2515 186.826 43.1816 186.631 43.1501C186.437 43.1187 186.237 43.1264 186.046 43.1728C185.502 43.3326 185.16 43.8907 185.035 44.4509C184.909 45.0112 184.956 45.5885 184.903 46.1551C184.827 46.9752 184.546 47.7677 184.478 48.5899C184.442 49.065 184.478 49.5464 184.421 50.0214C184.316 50.6431 184.1 51.2407 183.784 51.7852C183.095 53.0839 182.162 54.2369 181.037 55.1808C180.907 55.2894 180.774 55.3938 180.646 55.5109C180.646 55.4193 180.661 55.3256 180.674 55.234C180.581 55.2582 180.491 55.2902 180.404 55.3299C180.415 55.2223 180.404 55.1137 180.372 55.0103C180.202 54.5012 179.446 54.3713 179.31 53.8536C179.288 53.7256 179.275 53.596 179.274 53.466C179.229 53.0122 178.921 52.6288 178.815 52.1878C178.718 51.781 178.792 51.3357 178.603 50.9587C178.442 50.7229 178.252 50.5083 178.038 50.3196C177.783 50.0273 177.599 49.6794 177.5 49.3035C177.473 49.1992 177.447 49.0905 177.418 48.9861C177.45 48.7498 177.424 48.5091 177.341 48.2853C177.148 47.8039 176.649 47.495 176.468 47.0072C176.328 46.628 176.389 46.1551 176.124 45.8611C175.983 45.7207 175.81 45.6162 175.621 45.5565C174.648 45.1768 173.628 44.9352 172.589 44.8386C172.007 44.7854 171.366 44.7556 170.95 44.3444C170.463 43.8673 170.44 43.0088 169.871 42.6403C169.369 42.3143 168.66 42.5551 168.271 43.013C168.213 43.0804 168.159 43.1516 168.11 43.2261C168.039 42.9406 168.024 42.644 168.065 42.3527C168.065 42.2803 168.08 42.2057 168.086 42.1397C169.045 41.8254 169.862 41.179 170.389 40.3162C170.389 40.3162 170.389 40.3162 170.389 40.329L170.414 40.395C170.476 40.5505 170.574 40.6996 170.718 40.7167C170.814 40.7155 170.907 40.6817 170.981 40.6208C171.11 40.5315 171.228 40.4287 171.334 40.3141C171.388 40.2544 171.439 40.1927 171.487 40.1288C171.585 39.9957 171.669 39.853 171.738 39.7027C171.843 39.4766 171.915 39.2362 171.95 38.9891C171.988 38.742 171.993 38.4885 172.035 38.2414C172.075 38.0501 172.127 37.8616 172.19 37.6769C172.211 37.6151 172.233 37.5533 172.252 37.4916C172.271 37.4298 172.298 37.3467 172.32 37.2785C172.453 36.8404 172.524 36.3859 172.532 35.928C172.532 35.8513 172.532 35.7746 172.532 35.6979C172.524 35.3991 172.457 35.1048 172.335 34.8323C172.212 34.5598 172.037 34.3146 171.818 34.1109C171.453 33.8106 170.969 33.6849 170.701 33.278C170.527 33.0054 170.489 32.6539 170.387 32.3343C170.277 31.9519 170.062 31.6082 169.767 31.342C169.472 31.0758 169.108 30.8978 168.717 30.8283C168.247 30.7765 167.774 30.9068 167.396 31.1926L167.366 31.216C167.156 31.3773 166.977 31.5767 166.839 31.8039C166.559 31.7264 166.302 31.58 166.092 31.3779C165.879 31.1798 165.716 30.9305 165.501 30.7388C165.301 30.5547 165.055 30.4279 164.789 30.3717C164.523 30.3155 164.246 30.3319 163.989 30.4193C163.724 30.5259 163.487 30.694 163.299 30.9099C163.111 31.1257 162.977 31.3832 162.908 31.6612C162.791 32.1 162.812 32.6049 162.568 32.9713C162.379 33.2567 162.069 33.3973 161.852 33.6572C161.717 33.8218 161.625 34.0171 161.584 34.226C161.559 34.3427 161.546 34.4621 161.548 34.5817C161.548 34.635 161.548 34.6882 161.561 34.7393C161.561 34.7393 161.561 34.7564 161.561 34.7649C161.568 34.8233 161.581 34.881 161.597 34.9374C161.657 35.1534 161.766 35.3529 161.914 35.5211C162.054 35.6822 162.229 35.809 162.425 35.8918C162.506 35.9232 162.588 35.9495 162.672 35.9706L162.925 36.0281L163.014 36.0494C162.709 36.6238 162.539 37.2608 162.519 37.9112C162.498 38.5616 162.627 39.2081 162.895 39.8007C162.895 39.8603 162.88 39.92 162.874 39.9796C162.839 40.8184 162.876 41.6587 162.984 42.4911C163.014 42.8213 163.031 43.1856 162.829 43.4476C162.737 43.5507 162.634 43.6429 162.521 43.7224C162.636 43.5733 162.753 43.4263 162.872 43.2793C162.572 42.9768 162.098 42.9385 161.674 42.9683C160.851 43.0299 160.053 43.2744 159.337 43.6841C158.861 43.9589 158.373 44.3231 157.829 44.2592C157.508 44.223 157.192 44.0462 156.879 44.1314C156.704 44.2034 156.54 44.301 156.393 44.4211C156.277 44.5047 156.137 44.5481 155.994 44.5447C155.66 44.1335 155.144 43.8545 154.745 43.52C154.29 43.1143 153.874 42.6672 153.502 42.1844C152.814 41.3515 152.128 40.5164 151.452 39.675C150.883 38.9678 150.299 38.203 150.199 37.2977C150.189 37.2079 150.184 37.1176 150.184 37.0272C150.198 36.597 150.252 36.1691 150.346 35.7491C150.371 35.6476 150.371 35.5416 150.346 35.4402C150.282 35.2272 150.038 35.1483 149.827 35.1015C149.855 34.9374 149.874 34.7692 149.885 34.6094C150.004 32.7774 149.874 30.9156 150.261 29.122C150.407 28.4318 150.647 27.7331 151.142 27.2325C151.917 26.4465 153.215 26.2569 153.81 25.326C154.307 24.5506 154.11 23.4535 153.485 22.7697C152.861 22.0859 151.898 21.8069 150.983 21.841C150.726 21.8321 150.472 21.9004 150.254 22.0369C150.05 22.2184 149.898 22.4506 149.812 22.7101L148.901 24.9319C148.637 25.5103 148.414 26.1069 148.234 26.717C147.979 27.65 147.922 28.6342 147.72 29.5757C147.72 30.3 147.255 31.2032 147 31.87C146.715 32.6198 146.407 33.3611 146.15 34.1258C146.087 34.3176 145.864 34.8863 145.726 35.404C145.673 35.4344 145.625 35.4709 145.581 35.5126C145.47 35.6551 145.369 35.8053 145.28 35.9621C145.086 36.2177 144.772 36.354 144.559 36.6011C144.347 36.8482 144.302 37.302 144.598 37.4255C144.658 37.4457 144.72 37.4593 144.782 37.466C144.821 37.4693 144.86 37.4757 144.897 37.4852C145.216 37.5746 145.341 37.9772 145.294 38.3096C145.248 38.6419 145.082 38.9486 145.054 39.2809C144.997 39.8689 145.341 40.4163 145.672 40.9105C146.016 41.4463 146.395 41.958 146.807 42.4422C147.106 42.7787 147.444 43.0812 147.746 43.405C148.895 44.5894 149.808 45.974 150.84 47.2607C151.212 47.7463 151.634 48.1905 152.1 48.5857C152.404 48.8243 152.723 49.0442 153.054 49.2439L154.83 50.3729C155.031 50.5209 155.259 50.6287 155.501 50.6903C155.58 50.701 155.66 50.701 155.739 50.6903C155.749 50.7436 155.758 50.7947 155.771 50.8479C155.909 51.406 156.212 51.913 156.246 52.4818C156.28 53.0506 156.229 53.6321 156.27 54.2073C156.308 54.7377 156.425 55.2724 156.455 55.7943C156.514 56.7997 156.268 57.7924 156.03 58.7765C155.671 60.2166 155.454 61.6864 154.755 62.9922C154.56 63.3522 154.33 63.7186 154.33 64.1297C154.33 64.1787 154.33 64.2299 154.343 64.2789L154.025 64.4599C153.931 64.5132 153.838 64.5664 153.753 64.6218C153.349 64.886 152.918 65.1778 152.752 65.6337C152.618 66.0022 152.68 66.424 152.519 66.7818C152.511 66.7979 152.502 66.8135 152.493 66.8287C152.323 67.161 151.985 67.4081 151.909 67.7724C151.852 68.0515 151.962 68.3476 151.909 68.6245C151.909 68.6245 151.909 68.6245 151.909 68.6351C151.861 68.7742 151.822 68.9166 151.794 69.0612C151.792 69.1084 151.796 69.1557 151.807 69.2018C151.847 69.3632 151.936 69.5082 152.062 69.6171C152.138 69.6908 152.222 69.7571 152.31 69.8153C152.401 69.8749 152.494 69.9303 152.591 69.9814L152.646 70.0112C152.727 70.0538 152.807 70.0943 152.89 70.1327L152.945 70.1561C153.041 70.1987 153.139 70.237 153.236 70.2711L153.304 70.2924C153.381 70.318 153.46 70.3414 153.538 70.3606L153.591 70.3776L153.64 70.3883L153.853 70.433L153.931 70.4479C154.025 70.4636 154.12 70.4763 154.218 70.4863H154.303C154.375 70.4863 154.445 70.4969 154.515 70.4991H154.615C154.689 70.4991 154.762 70.4991 154.827 70.4991H154.904C155.004 70.4991 155.104 70.4841 155.203 70.4714H155.235C155.325 70.4586 155.414 70.4437 155.503 70.4245L155.571 70.4096C155.654 70.3904 155.737 70.3712 155.819 70.3457L155.864 70.3329C155.964 70.3031 156.064 70.2711 156.161 70.2328C156.5 70.0934 156.827 69.9304 157.143 69.745C157.355 69.6278 157.568 69.5085 157.78 69.3999C157.938 69.3203 158.099 69.2491 158.264 69.1868C158.666 69.0147 159.103 68.9417 159.539 68.9738C159.754 69.0032 159.967 69.0466 160.176 69.1038C160.176 69.1272 160.176 69.1506 160.176 69.1741C160.349 70.1966 160.519 71.2191 160.688 72.2416C160.966 72.0408 161.26 71.8634 161.567 71.7111C161.51 71.8655 161.472 72.0266 161.455 72.1904C161.442 72.3172 161.442 72.445 161.455 72.5717C161.474 72.7741 161.516 72.9978 161.395 73.1576C161.321 73.2555 161.183 73.3109 161.143 73.4217C161.113 73.535 161.106 73.6529 161.121 73.7689C161.113 73.9013 161.057 74.0262 160.964 74.1208C160.871 74.2154 160.748 74.2735 160.616 74.2844C160.677 74.4559 160.678 74.6429 160.62 74.8153C160.562 74.9877 160.447 75.1353 160.295 75.2345C160.206 75.2774 160.123 75.3318 160.049 75.3964C159.976 75.4905 159.927 75.6009 159.906 75.7181C159.626 76.773 159.048 77.7247 158.243 78.4596C157.941 78.6976 157.665 78.9676 157.421 79.2648C157.27 79.495 157.145 79.7416 157.049 79.9998C156.483 81.3887 155.908 82.7782 155.325 84.1686C155.002 84.9461 154.687 85.7364 154.585 86.5736C154.33 88.8699 152.291 90.8169 152.674 93.0963C152.751 93.6656 152.98 94.2036 153.336 94.6534C153.761 95.1668 154.398 95.4608 155.036 95.6993C156.673 96.3384 158.4 96.6878 160.121 97.0393L162.823 97.5952C163.353 97.7175 163.891 97.8029 164.433 97.8509C165.085 97.8956 165.754 97.8338 166.389 98C166.782 98.1022 167.158 98.2918 167.564 98.3131C167.912 98.3323 168.341 98.2577 168.547 98.5432C168.753 98.8286 168.594 99.2057 168.789 99.4592C169.104 99.8618 169.871 99.4592 170.213 99.8383C170.306 99.984 170.378 100.143 170.425 100.309C170.477 100.412 170.549 100.503 170.637 100.578C170.658 100.698 170.667 100.82 170.663 100.942C170.619 101.436 170.516 101.924 170.357 102.395C170.102 103.259 169.848 104.125 169.594 104.991C169.498 105.297 169.427 105.611 169.382 105.929C169.366 106.083 169.366 106.239 169.382 106.393C169.427 106.864 169.696 107.349 170.145 107.503C170.492 107.595 170.862 107.549 171.177 107.375C171.481 107.216 171.766 107.023 172.027 106.8C172.497 106.443 172.91 106.016 173.252 105.534C174.314 103.941 173.97 101.785 174.716 100.024C175.211 98.8478 176.175 97.8935 176.496 96.6537C176.571 96.4178 176.58 96.1657 176.521 95.9251C176.387 95.4991 175.935 95.2563 175.512 95.1029H175.493C175.146 94.9789 174.791 94.8772 174.431 94.7983C174.342 94.7791 174.25 94.7642 174.159 94.7493C173.957 94.5844 173.796 94.3743 173.69 94.1358C173.673 94.009 173.639 93.8851 173.59 93.7673C173.556 93.7165 173.511 93.6745 173.458 93.6449C173.404 93.6153 173.345 93.5988 173.284 93.5968C173.072 93.5755 172.787 93.6522 172.555 93.6352C172.082 93.6011 171.767 93.1346 171.343 92.9194C170.918 92.7043 170.457 92.7575 170.004 92.7895C169.843 92.8117 169.678 92.8015 169.52 92.7597C169.331 92.6725 169.159 92.5537 169.01 92.4082C168.749 92.2042 168.444 92.0639 168.119 91.9985C167.794 91.933 167.459 91.9442 167.139 92.0312C166.936 92.1135 166.72 92.1624 166.502 92.176C166.087 92.1526 165.794 91.7819 165.488 91.5007C164.652 90.7317 163.46 90.5293 162.445 90.0245C162.289 89.9665 162.16 89.8547 162.079 89.7092C161.962 89.4195 162.226 89.1298 162.464 88.9317L164.21 87.4768C166.121 85.8834 168.511 84.6841 169.399 82.3472C169.492 82.0339 169.635 81.7381 169.824 81.4717C169.893 81.3904 169.972 81.3188 170.06 81.2587C170.446 81.0077 170.914 80.9161 171.366 81.0031C171.917 81.1267 172.439 81.3553 172.904 81.6762C173.664 82.1378 174.404 82.6348 175.124 83.1674C175.836 83.6781 176.514 84.236 177.152 84.8374C178.267 85.9025 179.195 87.1658 180.234 88.3139C181.273 89.4621 182.46 90.5336 183.903 91.0832C185.345 91.6328 187.089 91.6094 188.327 90.687C189.757 89.6219 190.215 87.7175 190.577 85.9707C191.373 85.1996 191.613 84.0258 192.002 82.9884C192.246 82.3302 192.558 81.7103 192.822 81.0542C193.136 80.2831 193.382 79.4864 193.629 78.6918C193.908 77.8939 194.098 77.0672 194.194 76.2272C194.296 74.9001 193.941 73.4877 194.313 72.2416C194.804 72.1329 195.25 71.856 195.732 71.6941C196.45 71.4576 197.219 71.496 197.979 71.5003H198.028C198.29 71.5282 198.554 71.4658 198.776 71.3234C199.031 71.1104 199.071 70.7462 199.084 70.416C199.113 69.6001 199.062 68.6841 198.453 68.1558ZM167.676 31.8188C167.501 31.8624 167.319 31.8754 167.139 31.8572L167.676 31.8188Z" fill="url(#paint0_linear)"/>
<path d="M168.513 45.2945C168.256 45.5136 167.955 45.6742 167.63 45.7653L166.124 46.3064C165.306 46.6003 164.452 46.8964 163.59 46.7899C163.107 46.7303 161.041 46.4257 160.728 46.0486C160.253 45.4649 161.92 44.6065 162.489 44.1144C162.618 44.0213 162.738 43.9157 162.846 43.7991C163.059 43.5392 163.031 43.175 163.001 42.8469C162.893 42.0158 162.856 41.177 162.891 40.3397C162.907 40.14 162.936 39.9416 162.976 39.7453C163.188 38.7654 164.097 39.1233 164.815 39.3832C165.679 39.6647 166.515 40.0278 167.311 40.4675C167.553 40.5928 167.764 40.7721 167.927 40.9915C168.241 41.4687 168.116 42.095 168.065 42.6957C168.02 43.1622 168.023 43.6095 168.314 43.9482C168.46 44.0777 168.594 44.2203 168.715 44.3743C168.783 44.5293 168.8 44.702 168.764 44.8674C168.728 45.0328 168.64 45.1824 168.513 45.2945Z" fill="#BE6F72"/>
<path d="M147.71 29.9421C147.922 28.9985 147.969 28.025 148.224 27.0898C148.404 26.4818 148.626 25.8873 148.891 25.3111L149.827 23.1191C149.913 22.8603 150.065 22.6288 150.269 22.4481C150.488 22.3124 150.741 22.2443 150.998 22.2521C151.913 22.218 152.876 22.5035 153.5 23.1787C154.124 23.854 154.322 24.9468 153.825 25.7201C153.23 26.651 151.932 26.8384 151.157 27.6223C150.662 28.1229 150.422 28.8195 150.276 29.5076C149.889 31.2969 150.019 33.1524 149.9 34.9801C149.861 35.5488 149.751 36.1985 149.262 36.4925C148.967 36.6376 148.639 36.7016 148.311 36.6778L146.917 36.7013C146.684 36.7013 145.836 36.8483 145.681 36.6714C145.409 36.3626 146.029 34.8246 146.142 34.4816C146.393 33.7211 146.701 32.9798 146.992 32.2321C147.244 31.5653 147.71 30.6643 147.71 29.9421Z" fill="#BE6F72"/>
<path d="M176.481 96.8646C176.16 98.0959 175.196 99.0544 174.701 100.228C173.955 101.986 174.291 104.135 173.237 105.724C172.896 106.207 172.482 106.634 172.012 106.992C171.751 107.214 171.466 107.406 171.162 107.565C170.847 107.739 170.477 107.785 170.13 107.692C169.682 107.539 169.412 107.053 169.367 106.585C169.351 106.431 169.351 106.276 169.367 106.122C169.412 105.805 169.483 105.493 169.58 105.187C169.834 104.325 170.089 103.462 170.342 102.597C170.501 102.128 170.603 101.642 170.648 101.148C170.676 100.612 170.336 99.9129 170.48 99.4123C170.546 99.1865 170.792 98.9863 170.905 98.7967C171.065 98.5238 171.188 98.2308 171.27 97.9254C171.445 97.3311 171.564 96.6963 171.929 96.1957C172.167 95.8988 172.446 95.6371 172.757 95.4182C172.987 95.2163 173.256 95.0647 173.547 94.973C173.83 94.9231 174.12 94.9369 174.397 95.0134C174.757 95.0906 175.112 95.1917 175.459 95.3159H175.478C175.903 95.4693 176.353 95.7058 176.487 96.1361C176.552 96.3748 176.55 96.627 176.481 96.8646Z" fill="#3F3D56"/>
<path d="M199.082 70.6759C199.069 71.0061 199.028 71.3746 198.774 71.5812C198.552 71.7236 198.288 71.786 198.026 71.758H197.969C197.21 71.758 196.439 71.7154 195.721 71.9519C195.175 72.1329 194.674 72.4652 194.105 72.5313C193.321 72.6208 192.584 72.1904 191.889 71.8155C191.235 71.4622 190.564 71.1423 189.878 70.8569C189.427 70.6716 188.508 70.5523 188.291 70.0581C188.217 69.8243 188.154 69.5868 188.104 69.3466C188.068 69.2393 188.025 69.1346 187.974 69.0335C187.847 68.8176 187.766 68.5775 187.737 68.3284C187.737 68.0801 187.823 67.8396 187.979 67.6467C188.152 67.441 188.364 67.2717 188.603 67.1485C188.842 67.0253 189.102 66.9506 189.37 66.9288C189.905 66.8871 190.444 66.9158 190.972 67.0141L196.201 67.7681C196.605 67.8257 197.011 67.8832 197.408 67.9812C197.785 68.0468 198.141 68.2032 198.444 68.437C199.062 68.9568 199.113 69.8707 199.082 70.6759Z" fill="#3F3D56"/>
<path d="M194.485 72.0392C193.848 73.3876 194.307 74.9831 194.192 76.4743C194.096 77.3123 193.906 78.1368 193.627 78.9325C193.38 79.725 193.134 80.5195 192.82 81.2885C192.556 81.9276 192.244 82.5667 192 83.2185C191.611 84.2581 191.362 85.4275 190.574 86.2008C190.213 87.9433 189.755 89.8477 188.325 90.9043C187.082 91.8245 185.351 91.8565 183.9 91.3005C182.45 90.7445 181.271 89.6794 180.232 88.5312C179.193 87.3831 178.265 86.1326 177.15 85.0633C176.511 84.4617 175.832 83.9044 175.117 83.3953C174.398 82.8713 173.658 82.3785 172.897 81.917C172.432 81.5975 171.91 81.3697 171.36 81.2459C170.908 81.159 170.44 81.2506 170.053 81.5016C169.965 81.5616 169.886 81.6333 169.817 81.7146C169.628 81.98 169.485 82.2752 169.393 82.588C168.5 84.9184 166.107 86.1156 164.195 87.7047L162.449 89.1554C162.211 89.3535 161.948 89.6432 162.064 89.9308C162.145 90.0762 162.274 90.1881 162.43 90.246C163.445 90.7488 164.637 90.9511 165.474 91.718C165.779 91.9992 166.073 92.3699 166.487 92.3912C166.706 92.3783 166.921 92.3301 167.124 92.2484C167.444 92.1617 167.779 92.1505 168.104 92.2155C168.428 92.2805 168.734 92.4201 168.995 92.6234C169.144 92.7688 169.317 92.8877 169.505 92.9748C169.663 93.0167 169.828 93.0268 169.99 93.0047C170.442 92.9727 170.922 92.9322 171.328 93.1346C171.733 93.337 172.067 93.8141 172.541 93.8482C172.772 93.8653 173.048 93.7886 173.269 93.8099C173.33 93.8118 173.389 93.8283 173.443 93.8579C173.496 93.8876 173.541 93.9295 173.575 93.9803C173.625 94.0974 173.658 94.2206 173.675 94.3467C173.762 94.6471 174.055 94.8302 174.246 95.0773C174.539 95.4565 174.582 95.972 174.552 96.4513C174.456 97.95 173.79 99.3545 172.691 100.375C172.38 100.695 171.982 100.917 171.546 101.014C171.329 101.06 171.102 101.036 170.898 100.945C170.695 100.855 170.525 100.702 170.412 100.509C170.365 100.344 170.293 100.186 170.2 100.041C169.858 99.6637 169.091 100.064 168.777 99.6616C168.581 99.4102 168.721 99.0076 168.534 98.7477C168.348 98.4878 167.897 98.5347 167.551 98.5198C167.145 98.4984 166.769 98.3067 166.376 98.2066C165.739 98.0405 165.072 98.1022 164.42 98.0575C163.878 98.0096 163.34 97.9242 162.81 97.8019L160.108 97.248C158.388 96.8965 156.661 96.5408 155.023 95.9124C154.396 95.6738 153.765 95.3798 153.324 94.8686C152.967 94.4193 152.739 93.8822 152.661 93.3135C152.276 91.0406 154.316 89.0979 154.573 86.8079C154.664 85.9729 154.997 85.1847 155.312 84.4093C155.888 83.0232 156.463 81.6365 157.037 80.249C157.129 79.9907 157.25 79.7435 157.398 79.512C157.642 79.2154 157.918 78.9461 158.22 78.7089C159.025 77.9763 159.602 77.0267 159.883 75.9737C159.904 75.8565 159.953 75.7462 160.025 75.652C160.1 75.5888 160.183 75.5352 160.272 75.4923C160.423 75.3932 160.537 75.2459 160.596 75.074C160.654 74.902 160.653 74.7155 160.592 74.5443C160.724 74.5334 160.848 74.4753 160.941 74.3807C161.033 74.2861 161.089 74.1612 161.098 74.0288C161.082 73.9135 161.09 73.7963 161.119 73.6837C161.17 73.573 161.298 73.5176 161.372 73.4196C161.493 73.2598 161.451 73.0361 161.431 72.8359C161.419 72.7091 161.419 72.5814 161.431 72.4546C161.478 72.0035 161.679 71.5826 162.001 71.2638C162.508 70.7632 163.231 70.8932 163.932 70.7739C164.631 70.6225 165.314 70.4035 165.971 70.1199C167.814 69.3916 169.754 68.9415 171.729 68.7843C173.714 68.6277 175.707 68.946 177.545 69.713C177.812 69.8216 178.065 69.9649 178.295 70.1391C178.458 70.2655 178.592 70.4261 178.688 70.6098C178.766 70.8353 178.863 71.0541 178.977 71.2638C179.204 71.5748 179.633 71.6749 179.882 71.9689C180.13 72.2629 180.151 72.7592 180.357 73.1235C180.653 73.6432 181.337 73.884 181.541 74.4485C181.604 74.6274 181.613 74.8234 181.659 75.0087C181.774 75.4731 182.118 75.8395 182.422 76.2059C183.536 77.5416 184.249 79.1666 184.478 80.8923C184.546 79.8123 185.27 78.8558 186.177 78.2594C186.422 78.0996 186.704 77.9228 186.753 77.6331C186.815 77.2667 186.46 76.9408 186.483 76.568C186.509 76.386 186.582 76.214 186.696 76.0695C187.101 75.4811 187.545 74.921 188.025 74.3931C188.287 74.1055 188.58 73.754 188.472 73.3748C188.389 73.0915 188.1 72.9254 187.94 72.6783C187.848 72.5309 187.8 72.3594 187.804 72.1851C187.808 72.0108 187.862 71.8415 187.962 71.6984C188.11 71.496 188.346 71.349 188.418 71.1083C188.501 70.825 188.316 70.5182 188.374 70.2264C188.451 69.9927 188.606 69.7922 188.811 69.6576C189.093 69.4003 189.414 69.189 189.761 69.0314C190.322 68.8183 190.946 68.8972 191.541 68.9802C192.535 69.1187 193.65 69.3317 194.211 70.1668C194.57 70.6887 194.753 71.4811 194.485 72.0392Z" fill="#65617D"/>
<path opacity="0.1" d="M199.082 70.6759C199.069 71.0061 199.028 71.3746 198.774 71.5812C198.552 71.7236 198.288 71.786 198.026 71.758H197.969C198.056 71.3149 198.593 71.0614 198.686 70.612C198.702 70.4739 198.69 70.334 198.65 70.201C198.61 70.068 198.543 69.9447 198.453 69.8387C197.998 69.2231 197.268 68.8822 196.541 68.633C194.489 67.9274 192.29 67.7623 190.156 68.1537C189.576 68.2485 189.011 68.4227 188.478 68.6714C188.301 68.7822 188.131 68.9031 187.968 69.0335C187.841 68.8176 187.76 68.5775 187.73 68.3284C187.731 68.0801 187.817 67.8396 187.972 67.6467C188.146 67.441 188.358 67.2717 188.597 67.1485C188.835 67.0253 189.096 66.9506 189.364 66.9288C189.899 66.8871 190.437 66.9158 190.965 67.0141L196.195 67.7681C196.598 67.8257 197.004 67.8832 197.401 67.9812C197.779 68.0468 198.134 68.2032 198.438 68.437C199.062 68.9568 199.113 69.8707 199.082 70.6759Z" fill="black"/>
<path opacity="0.1" d="M176.481 96.8646C176.16 98.0958 175.196 99.0544 174.701 100.228C173.955 101.986 174.291 104.135 173.237 105.724C172.896 106.207 172.482 106.634 172.012 106.992C171.751 107.214 171.466 107.406 171.162 107.565C170.847 107.739 170.477 107.785 170.13 107.692C169.682 107.539 169.412 107.053 169.367 106.585C169.351 106.431 169.351 106.276 169.367 106.122L169.38 106.157C169.565 106.604 169.866 107.073 170.342 107.151C170.521 107.164 170.7 107.14 170.869 107.08C171.038 107.021 171.193 106.927 171.323 106.804C172.024 106.24 172.432 105.398 172.821 104.587C173.125 104.001 173.366 103.385 173.539 102.748C173.624 102.386 173.664 102.015 173.751 101.653C174.155 99.8937 175.529 98.458 175.833 96.675C175.858 96.5523 175.863 96.4266 175.85 96.3022C175.81 96.14 175.749 95.9838 175.667 95.8378C175.594 95.6729 175.539 95.4999 175.506 95.3223C175.931 95.4757 176.381 95.7121 176.515 96.1424C176.57 96.3817 176.558 96.6315 176.481 96.8646Z" fill="black"/>
<path opacity="0.1" d="M173.273 93.8099C173.077 94.3253 172.746 94.7784 172.316 95.1221C171.711 95.5841 171.003 95.8912 170.253 96.0168C169.904 96.1061 169.538 96.1016 169.191 96.004C168.719 95.84 168.38 95.3969 167.897 95.2691C167.553 95.1753 167.184 95.2584 166.835 95.2073C166.209 95.1199 165.722 94.6406 165.217 94.2572C163.668 93.0899 161.635 92.7128 160.087 91.5455C160.018 91.503 159.961 91.4436 159.921 91.3729C159.892 91.2964 159.881 91.2138 159.889 91.1322C159.895 90.4241 160.054 89.7257 160.355 89.0851C160.601 88.6381 160.894 88.2189 161.23 87.8347C162.617 86.1305 164.01 84.4136 165.671 82.9757C166.368 82.3728 167.128 81.8105 168.008 81.5378C168.496 81.3865 169.461 81.2438 170.055 81.4994C169.968 81.5595 169.888 81.6312 169.82 81.7125C169.631 81.9779 169.487 82.273 169.395 82.5858C168.501 84.9184 166.107 86.1156 164.195 87.7047L162.449 89.1554C162.211 89.3535 161.948 89.6432 162.064 89.9308C162.145 90.0762 162.274 90.1881 162.43 90.2461C163.445 90.7488 164.637 90.9511 165.474 91.718C165.78 91.9992 166.073 92.3699 166.487 92.3912C166.706 92.3783 166.921 92.3301 167.124 92.2484C167.444 92.1617 167.779 92.1505 168.104 92.2155C168.428 92.2805 168.734 92.4201 168.996 92.6234C169.144 92.7688 169.317 92.8877 169.505 92.9748C169.663 93.0167 169.828 93.0268 169.99 93.0047C170.442 92.9727 170.922 92.9322 171.328 93.1346C171.734 93.337 172.067 93.8141 172.541 93.8482C172.776 93.8653 173.053 93.7843 173.273 93.8099Z" fill="black"/>
<path d="M153.738 64.8988C153.334 65.1587 152.905 65.4526 152.739 65.9042C152.603 66.2727 152.667 66.6945 152.504 67.0524C152.34 67.4103 151.973 67.6595 151.892 68.0429C151.835 68.322 151.947 68.616 151.892 68.895C151.844 69.0401 151.805 69.1881 151.775 69.3381C151.754 69.6555 152.026 69.9133 152.291 70.0901C152.857 70.4588 153.5 70.6894 154.17 70.7634C154.841 70.8374 155.519 70.7527 156.151 70.5161C156.718 70.3031 157.23 69.9559 157.774 69.6832C158.304 69.377 158.91 69.2291 159.522 69.2572C159.872 69.2955 160.208 69.4233 160.558 69.4702C160.731 69.5045 160.91 69.496 161.079 69.4456C161.248 69.3951 161.403 69.3041 161.529 69.1805C161.637 69.0306 161.71 68.8579 161.741 68.6756C162.037 67.5061 161.903 66.2664 161.623 65.0905C161.342 63.9146 160.917 62.7835 160.618 61.614C160.405 60.747 160.242 59.8587 159.887 59.0386C159.532 58.2185 158.936 57.4558 158.101 57.1427C158.035 57.1103 157.96 57.1006 157.888 57.115C157.835 57.1375 157.787 57.1725 157.75 57.2173C157.09 57.919 156.592 58.7585 156.293 59.6755C155.96 60.6959 155.868 61.778 155.562 62.8026C155.431 63.2287 155.261 63.7996 154.925 64.1255C154.59 64.4514 154.118 64.6538 153.738 64.8988Z" fill="#3F3D56"/>
<path opacity="0.1" d="M161.748 68.6692C161.712 68.8522 161.636 69.0247 161.525 69.1741C161.399 69.2981 161.245 69.3892 161.075 69.4394C160.906 69.4895 160.727 69.4972 160.554 69.4617C160.206 69.4191 159.87 69.2891 159.52 69.2486C158.908 69.2203 158.302 69.3681 157.772 69.6747C157.228 69.9473 156.71 70.286 156.147 70.5055C155.323 70.8186 154.424 70.8699 153.57 70.6524C153.117 70.5382 152.686 70.348 152.296 70.0901C152.028 69.9154 151.758 69.664 151.779 69.3381C151.809 69.1888 151.848 69.0415 151.896 68.8972C151.952 68.6181 151.841 68.3241 151.896 68.0451C151.977 67.6616 152.347 67.406 152.508 67.0524C152.67 66.6988 152.608 66.2749 152.742 65.9063C152.907 65.4526 153.339 65.1608 153.742 64.8988C154.146 64.6367 154.626 64.4365 154.949 64.1191C154.99 64.0697 155.028 64.017 155.061 63.9615C155.294 63.6014 155.465 63.2046 155.567 62.7877C155.879 61.761 155.964 60.681 156.295 59.6585C156.596 58.7422 157.094 57.9036 157.755 57.2023C157.79 57.1566 157.837 57.1213 157.891 57.1001C157.962 57.0855 158.037 57.0944 158.103 57.1257C158.936 57.4409 159.533 58.2035 159.889 59.0237C160.246 59.8438 160.397 60.7278 160.62 61.5969C160.917 62.7664 161.344 63.9018 161.625 65.0756C161.905 66.2493 162.043 67.4976 161.748 68.6692Z" fill="black"/>
<path opacity="0.1" d="M168.065 42.6893C167.066 43.0075 165.986 42.9443 165.03 42.5118C164.075 42.0792 163.313 41.3079 162.891 40.346C162.907 40.1464 162.936 39.948 162.976 39.7517C163.188 38.7718 164.097 39.1297 164.815 39.3896C165.68 39.6711 166.515 40.0342 167.311 40.4738C167.554 40.5992 167.764 40.7784 167.927 40.9979C168.242 41.4687 168.116 42.0949 168.065 42.6893Z" fill="black"/>
<path d="M166.782 42.6765C169.128 42.6765 171.03 40.769 171.03 38.4161C171.03 36.0631 169.128 34.1557 166.782 34.1557C164.436 34.1557 162.534 36.0631 162.534 38.4161C162.534 40.769 164.436 42.6765 166.782 42.6765Z" fill="#BE6F72"/>
<path opacity="0.1" d="M178.31 70.2541C178.31 70.6077 177.832 70.7206 177.477 70.7014C176.203 70.6269 174.956 70.2754 173.694 70.3819C172.099 70.5268 170.633 71.4108 169.034 71.4917C168.418 71.5237 167.791 71.4321 167.184 71.545C166.398 71.692 165.697 72.1713 164.896 72.2394C164.201 72.2991 163.515 72.0371 162.821 72.0648C162.335 72.0938 161.862 72.229 161.434 72.461C161.48 72.0099 161.681 71.589 162.003 71.2702C162.511 70.7696 163.233 70.8995 163.934 70.7803C164.633 70.6289 165.316 70.4099 165.973 70.1263C167.816 69.398 169.757 68.9479 171.731 68.7906C173.715 68.6324 175.707 68.9486 177.545 69.713C177.812 69.8216 178.065 69.9649 178.295 70.1391C178.306 70.1762 178.312 70.2152 178.31 70.2541Z" fill="black"/>
<path d="M164.817 46.1956L163.097 45.5565L162.37 45.2881C162.074 45.1637 161.763 45.0806 161.444 45.041C160.612 44.9771 159.828 45.5331 159.384 46.2424C158.94 46.9518 158.772 47.7975 158.63 48.6219C158.434 49.7495 158.269 50.8813 158.133 52.0174C157.986 53.0434 157.912 54.0783 157.91 55.1147C157.959 57.7519 158.515 60.3529 159.127 62.9198C159.426 64.0579 159.653 65.2141 159.804 66.3814C159.855 66.8628 159.879 67.3463 159.93 67.8299C159.985 68.3731 160.074 68.9099 160.163 69.4489L160.675 72.51C161.313 72.0562 162.037 71.6579 162.821 71.6344C163.515 71.6089 164.203 71.8688 164.896 71.8091C165.692 71.7431 166.398 71.2638 167.184 71.1168C167.791 71.0039 168.418 71.0934 169.036 71.0635C170.633 70.9826 172.101 70.0964 173.694 69.9537C174.958 69.8387 176.213 70.1966 177.479 70.2711C177.832 70.2924 178.31 70.1795 178.31 69.8238C178.31 69.5767 178.063 69.4126 177.849 69.2891C176.838 68.6785 175.875 67.9897 174.971 67.2292C174.134 66.5646 173.284 65.8829 172.708 64.9839C171.321 62.8218 171.797 59.897 170.614 57.6156C169.652 55.7623 170.614 53.3339 170.614 51.2441C170.614 50.2025 170.614 49.148 170.37 48.1362C170.217 47.5703 170.027 47.0152 169.801 46.4746L168.974 44.3764C168.957 44.3151 168.923 44.2597 168.877 44.2166C168.821 44.1782 168.755 44.1581 168.687 44.1591C168.191 44.1293 167.702 44.2865 167.315 44.6C166.927 44.9174 166.678 45.3733 166.296 45.7035C165.877 46.0678 165.338 46.3873 164.817 46.1956Z" fill="#E3E8F4"/>
<path d="M167.594 44.9856C167.729 44.402 167.876 43.7948 168.265 43.339C168.653 42.8831 169.363 42.6424 169.864 42.9683C170.433 43.339 170.457 44.1953 170.943 44.6725C171.368 45.0815 172.005 45.1134 172.583 45.1667C173.622 45.2615 174.642 45.5025 175.614 45.8824C175.804 45.9414 175.976 46.0451 176.118 46.1849C176.383 46.4874 176.33 46.9518 176.462 47.3289C176.642 47.8145 177.141 48.1234 177.335 48.607C177.547 49.1438 177.335 49.7445 177.156 50.2962C176.836 51.2868 176.634 52.3157 176.322 53.3105C176.009 54.3053 175.565 55.2852 174.835 56.035C174.512 56.3673 174.032 56.674 173.607 56.4759L173.443 57.6582C173.396 57.908 173.396 58.1646 173.443 58.4144C173.468 58.5394 173.527 58.6549 173.615 58.7476C173.702 58.8403 173.813 58.9064 173.936 58.9385C173.968 59.1217 174.161 59.209 174.319 59.3091C174.435 59.3887 174.534 59.4906 174.61 59.6088C174.687 59.7271 174.739 59.8595 174.764 59.9982C174.789 60.1369 174.786 60.2792 174.756 60.4169C174.726 60.5546 174.669 60.6849 174.588 60.8003C174.454 60.9813 174.257 61.124 174.193 61.3392C174.098 61.6502 174.325 61.9783 174.601 62.1487C174.877 62.3191 175.202 62.3979 175.483 62.5619C176.065 62.8985 176.377 63.561 176.576 64.2043C176.725 64.69 176.848 65.2162 177.214 65.5698C177.354 65.704 177.522 65.8062 177.656 65.9468C177.887 66.2213 178.021 66.5653 178.036 66.9246C178.094 67.3698 177.996 67.8215 177.76 68.2027C177.335 68.8119 176.542 68.993 175.848 69.2678C174.72 69.7322 173.792 70.563 172.798 71.2702C172.393 71.5972 171.916 71.8222 171.406 71.9263C170.718 72.0179 170.041 71.7133 169.348 71.6856C168.934 71.6895 168.522 71.7438 168.12 71.8475L166.846 72.1244C166.914 71.1339 166.37 70.1412 166.066 69.1975C165.493 67.4209 165.387 65.5208 165.523 63.659C165.658 61.7972 166.037 59.961 166.41 58.1332C166.672 56.8551 166.646 55.5195 167.048 54.2776C167.424 53.0825 167.961 51.9344 168.159 50.6903C168.481 48.6773 167.139 46.971 167.594 44.9856Z" fill="#3F3D56"/>
<path d="M177.256 48.9244C177.373 49.1408 177.456 49.3745 177.5 49.6167C177.599 49.9919 177.783 50.3391 178.038 50.6307C178.252 50.8197 178.441 51.0343 178.603 51.2697C178.798 51.6404 178.724 52.092 178.815 52.4967C178.921 52.9377 179.229 53.3211 179.274 53.7748C179.275 53.9049 179.287 54.0345 179.31 54.1625C179.448 54.6781 180.204 54.8016 180.372 55.3171C180.485 55.6516 180.292 56.0158 180.328 56.3673C180.354 56.476 180.36 56.5886 180.347 56.6996C180.299 56.8251 180.214 56.9334 180.105 57.0106C179.402 57.6841 178.915 58.5527 178.707 59.5051C178.502 60.4523 178.395 61.4181 178.386 62.3872L177.556 61.2859C177.468 61.1523 177.355 61.0367 177.224 60.9451C177.118 60.8812 176.995 60.8492 176.887 60.7853C176.572 60.6064 176.449 60.2272 176.328 59.8864C175.992 58.9429 175.488 58.0682 174.841 57.3046C174.503 56.9062 174.11 56.5058 174.036 55.9881C174.014 55.7504 174.027 55.5106 174.074 55.2766C174.287 53.8814 174.514 52.452 175.192 51.2143C175.508 50.6349 175.918 50.1109 176.222 49.523C176.426 49.1331 176.712 48.1192 177.256 48.9244Z" fill="#3F3D56"/>
<path d="M156.302 50.2643C156.306 50.4436 156.26 50.6205 156.17 50.7755C156.089 50.8699 155.983 50.9397 155.865 50.9774C155.746 51.015 155.619 51.0188 155.499 50.9885C155.257 50.9276 155.029 50.8206 154.828 50.6733C154.236 50.2983 153.644 49.9227 153.052 49.5464C152.721 49.3466 152.403 49.1276 152.098 48.8903C151.632 48.4958 151.21 48.0523 150.839 47.5674C149.806 46.2893 148.893 44.9025 147.744 43.7331C147.431 43.4135 147.106 43.1068 146.805 42.7723C146.393 42.2889 146.014 41.7779 145.671 41.2428C145.339 40.7508 144.995 40.2054 145.052 39.6175C145.086 39.2852 145.246 38.9784 145.292 38.6483C145.339 38.3181 145.214 37.9155 144.895 37.826C144.858 37.8165 144.819 37.8101 144.781 37.8068C144.718 37.8001 144.656 37.7866 144.596 37.7664C144.3 37.6428 144.345 37.1848 144.557 36.9441C144.77 36.7034 145.084 36.5692 145.278 36.305C145.367 36.1483 145.468 35.9981 145.579 35.8556C145.721 35.7333 145.891 35.6477 146.074 35.6063C147.299 35.2442 148.595 35.1952 149.844 35.4636C150.057 35.5105 150.299 35.5957 150.363 35.8023C150.388 35.903 150.388 36.0084 150.363 36.1091C150.269 36.5291 150.215 36.957 150.201 37.3872C150.201 37.4769 150.206 37.5665 150.216 37.6556C150.316 38.5588 150.9 39.3235 151.469 40.0286C152.145 40.8679 152.831 41.7008 153.519 42.5316C153.891 43.013 154.307 43.4588 154.762 43.863C155.187 44.2166 155.737 44.5021 156.068 44.9558C156.338 45.3222 156.251 45.8228 156.281 46.2637C156.379 47.5952 156.386 48.9318 156.302 50.2643Z" fill="#3F3D56"/>
<path d="M183.278 59.1515C183.488 58.9469 183.677 58.7222 183.843 58.4805C184.022 58.181 184.164 57.8613 184.268 57.5282L185.5 54.0241C185.695 53.4702 185.891 52.9142 186.137 52.3753C186.392 51.7937 186.694 51.2335 186.972 50.6711C187.688 49.1912 188.241 47.6377 188.622 46.0379C188.69 45.8181 188.712 45.587 188.688 45.3584C188.629 44.9899 188.351 44.7023 188.085 44.4403C187.818 44.1511 187.514 43.8989 187.18 43.6904C187.013 43.586 186.826 43.516 186.631 43.4845C186.437 43.4531 186.238 43.4608 186.046 43.5073C185.502 43.667 185.16 44.2251 185.035 44.7854C184.909 45.3456 184.956 45.9186 184.903 46.4895C184.827 47.3075 184.546 48.0978 184.478 48.918C184.442 49.393 184.478 49.8723 184.421 50.3452C184.316 50.9662 184.1 51.5631 183.784 52.1069C183.093 53.4023 182.161 54.5522 181.037 55.4939C180.729 55.7218 180.452 55.9889 180.213 56.2885C180.013 56.5881 179.878 56.9262 179.816 57.2812C179.675 57.8217 179.736 58.3953 179.988 58.8937C180.334 59.4859 180.999 59.7458 181.634 59.8779C182.492 60.0568 182.69 59.7628 183.278 59.1515Z" fill="#BE6F72"/>
<path d="M166.808 32.2427C166.991 31.8981 167.271 31.6152 167.613 31.4292C167.955 31.2432 168.344 31.1623 168.732 31.1968C169.123 31.2662 169.486 31.4438 169.781 31.7096C170.076 31.9754 170.291 32.3187 170.402 32.7007C170.501 33.0181 170.542 33.3696 170.716 33.6423C170.979 34.0534 171.468 34.1727 171.833 34.4709C172.051 34.6742 172.227 34.919 172.35 35.1912C172.472 35.4633 172.539 35.7573 172.547 36.0558C172.567 36.6656 172.471 37.2736 172.265 37.8473C172.177 38.0921 172.106 38.3426 172.052 38.5971C172.01 38.8442 172.005 39.0956 171.967 39.3427C171.92 39.6631 171.81 39.9708 171.642 40.2478C171.475 40.5247 171.254 40.7653 170.992 40.9553C170.918 41.0162 170.825 41.05 170.729 41.0511C170.563 41.032 170.461 40.8381 170.4 40.6634C170.062 39.6857 170.143 38.4906 169.52 37.711C169.237 37.3965 168.895 37.141 168.513 36.959C168.358 36.8584 168.182 36.7923 167.999 36.7652C167.73 36.7797 167.471 36.8747 167.256 37.0378C166.808 37.3394 166.31 37.56 165.786 37.6897C165.524 37.7518 165.252 37.7546 164.99 37.6979C164.727 37.6411 164.48 37.5262 164.267 37.3616C163.974 37.1188 163.76 36.7545 163.435 36.5649C163.11 36.3753 162.77 36.386 162.449 36.2561C162.245 36.1689 162.063 36.036 161.917 35.8677C161.772 35.6993 161.667 35.4999 161.61 35.2846C161.553 35.0693 161.545 34.8437 161.589 34.6252C161.632 34.4067 161.724 34.2009 161.858 34.0236C162.071 33.768 162.385 33.6231 162.574 33.3398C162.819 32.9734 162.797 32.4707 162.914 32.0319C162.983 31.7542 163.117 31.4971 163.305 31.2819C163.493 31.0666 163.73 30.8995 163.995 30.7942C164.253 30.7066 164.529 30.6898 164.795 30.7456C165.061 30.8014 165.307 30.9278 165.508 31.1116C165.72 31.3033 165.89 31.5504 166.098 31.7507C166.304 31.948 166.555 32.0903 166.83 32.1648C167.105 32.2392 167.393 32.2433 167.67 32.1767" fill="#3F3D56"/>
<path opacity="0.1" d="M170.3 63.5972C170.176 63.7077 170.088 63.8529 170.048 64.014C170.008 64.1751 170.017 64.3446 170.075 64.5004C170.121 64.6005 172.313 64.1766 172.545 64.1447C173.123 64.0616 174.136 64.1021 174.525 63.5717C175.217 62.6322 173.072 62.841 172.679 62.8751C171.931 62.939 170.869 63.0412 170.3 63.5972Z" fill="black"/>
<path d="M150.359 36.1176C150.265 36.5376 150.211 36.9655 150.197 37.3957C149.56 37.5256 148.897 37.3126 148.285 37.0996L146.529 36.4989C146.422 36.4304 146.293 36.4053 146.168 36.4286C146.044 36.452 145.933 36.522 145.857 36.6246C145.575 36.9185 145.186 37.4766 144.795 37.8068C144.733 37.8001 144.671 37.7866 144.611 37.7664C144.315 37.6428 144.36 37.1848 144.572 36.9441C144.785 36.7034 145.099 36.5692 145.292 36.305C145.382 36.1483 145.483 35.9981 145.594 35.8556C145.736 35.7333 145.906 35.6477 146.089 35.6063C147.314 35.2442 148.61 35.1952 149.859 35.4636C150.072 35.5105 150.314 35.5957 150.378 35.8023C150.398 35.9073 150.392 36.0159 150.359 36.1176Z" fill="#3F3D56"/>
<path opacity="0.1" d="M150.359 36.1176C150.265 36.5376 150.211 36.9655 150.197 37.3957C149.56 37.5256 148.897 37.3126 148.285 37.0996L146.529 36.4989C146.422 36.4304 146.293 36.4053 146.168 36.4286C146.044 36.452 145.933 36.522 145.857 36.6246C145.575 36.9185 145.186 37.4766 144.795 37.8068C144.733 37.8001 144.671 37.7866 144.611 37.7664C144.315 37.6428 144.36 37.1848 144.572 36.9441C144.785 36.7034 145.099 36.5692 145.292 36.305C145.382 36.1483 145.483 35.9981 145.594 35.8556C145.736 35.7333 145.906 35.6477 146.089 35.6063C147.314 35.2442 148.61 35.1952 149.859 35.4636C150.072 35.5105 150.314 35.5957 150.378 35.8023C150.398 35.9073 150.392 36.0159 150.359 36.1176Z" fill="black"/>
<path opacity="0.1" d="M166.427 76.5595C166.733 76.6618 167.065 76.8109 167.169 77.1176L164.709 76.4913L163.435 76.1654C163.209 76.1079 162.402 76.0419 162.254 75.8651C162.041 75.6052 162.795 75.7841 162.931 75.8033C163.343 75.865 163.755 75.929 164.165 76.0035C164.938 76.142 165.682 76.3699 166.427 76.5595Z" fill="black"/>
<path opacity="0.1" d="M167.381 78.743C167.169 78.6002 166.559 78.6173 166.298 78.5555C165.916 78.4639 165.54 78.3425 165.164 78.2253C164.401 77.9761 163.645 77.6928 162.861 77.5096C162.717 77.4776 162.224 77.4691 162.247 77.2859C162.271 77.1027 162.74 77.0388 162.857 77.0303C163.551 76.9791 164.418 77.3051 165.064 77.5372C165.887 77.8329 166.666 78.2384 167.381 78.743Z" fill="black"/>
<path opacity="0.1" d="M165.822 74.6125C165.042 74.3995 164.335 73.9138 163.532 73.8201C163.323 73.828 163.117 73.765 162.948 73.6411C162.854 73.5481 162.788 73.4298 162.759 73.3003C163.296 73.2726 163.921 73.5005 164.409 73.7157C164.678 73.8313 164.937 73.9696 165.183 74.1289C165.361 74.2376 165.629 74.5507 165.822 74.6125Z" fill="black"/>
<path d="M180.682 55.5387C180.551 56.4243 180.741 57.3279 181.22 58.0841C181.698 58.8402 182.432 59.3984 183.287 59.6563C183.183 60.1612 182.662 60.4403 182.295 60.8003C181.776 61.3051 181.509 62.0613 180.897 62.4448C180.215 62.8708 179.338 62.7047 178.56 62.5257C178.49 62.5178 178.425 62.4836 178.378 62.4299C178.362 62.4043 178.35 62.3762 178.344 62.3468C178.087 61.4031 177.919 60.3955 178.182 59.4497C178.395 58.6445 178.905 57.9586 179.312 57.2471C179.72 56.5356 179.758 55.773 180.682 55.5387Z" fill="#3F3D56"/>
<path d="M161.691 43.3241C160.868 43.3841 160.07 43.6279 159.354 44.0377C158.878 44.3103 158.39 44.6767 157.846 44.6107C157.525 44.5745 157.209 44.3977 156.896 44.4829C156.721 44.5541 156.556 44.6518 156.41 44.7726C156.336 44.8319 156.247 44.871 156.154 44.8859C156.06 44.9008 155.964 44.8911 155.875 44.8578L155.662 47.806C155.582 48.9265 155.503 50.0704 155.771 51.1632C155.909 51.7213 156.212 52.2283 156.246 52.7949C156.28 53.3616 156.229 53.9431 156.27 54.5161C156.308 55.0466 156.425 55.5685 156.455 56.0989C156.514 57.1001 156.268 58.0927 156.03 59.0662C155.671 60.502 155.454 61.9697 154.755 63.2691C154.56 63.6291 154.33 63.9955 154.33 64.4045C154.33 64.4557 154.33 64.5047 154.343 64.5536C154.131 64.6708 153.933 64.7816 153.753 64.8966C153.349 65.1586 152.918 65.4505 152.752 65.9042C152.618 66.2727 152.68 66.6945 152.519 67.0502C152.357 67.406 151.988 67.6595 151.907 68.0429C151.849 68.322 151.96 68.6159 151.907 68.895C151.859 69.0394 151.82 69.1867 151.79 69.336C151.769 69.6555 152.039 69.9132 152.306 70.0879C152.696 70.3459 153.127 70.536 153.581 70.6503L154.849 65.6017C156.005 63.4579 156.967 61.2143 157.723 58.898C157.939 58.1408 158.217 57.4027 158.553 56.6911C158.794 56.2885 159.007 55.87 159.19 55.4385C159.384 54.9017 159.403 54.3202 159.496 53.7535C159.607 53.0922 159.774 52.4415 159.996 51.8087C160.225 51.1249 160.49 50.4432 160.537 49.7253C160.607 48.6986 160.236 47.6143 160.631 46.6642C160.798 46.3086 161.017 45.9793 161.278 45.6864C161.827 45.0133 162.326 44.3082 162.874 43.6351C162.589 43.3304 162.115 43.2985 161.691 43.3241Z" fill="#3F3D56"/>
<g opacity="0.1">
<path opacity="0.1" d="M167.676 31.5419L167.411 31.5611L167.381 31.5824C167.481 31.5783 167.579 31.5648 167.676 31.5419Z" fill="black"/>
<path opacity="0.1" d="M172.536 35.9642C172.492 36.3877 172.401 36.805 172.265 37.2082C172.177 37.453 172.106 37.7036 172.052 37.9581C172.01 38.2052 172.005 38.4565 171.967 38.7036C171.92 39.0241 171.81 39.3318 171.642 39.6087C171.475 39.8857 171.254 40.1262 170.992 40.3162C170.918 40.3771 170.825 40.4109 170.729 40.4121C170.563 40.3929 170.461 40.1991 170.4 40.0244C170.062 39.0466 170.143 37.8516 169.52 37.0719C169.237 36.7574 168.895 36.5019 168.513 36.32C168.358 36.2193 168.182 36.1532 167.999 36.1261C167.73 36.1406 167.471 36.2356 167.256 36.3988C166.808 36.7003 166.31 36.921 165.786 37.0506C165.524 37.1127 165.252 37.1155 164.99 37.0588C164.727 37.002 164.48 36.8872 164.267 36.7226C163.974 36.4797 163.76 36.1155 163.435 35.9259C163.11 35.7363 162.77 35.7469 162.449 35.617C162.249 35.5312 162.07 35.4012 161.927 35.2367C161.783 35.0722 161.679 34.8775 161.621 34.6669C161.613 34.6403 161.607 34.6133 161.604 34.586C161.55 34.8238 161.556 35.071 161.621 35.306C161.679 35.5166 161.783 35.7113 161.927 35.8758C162.07 36.0403 162.249 36.1702 162.449 36.256C162.77 36.386 163.131 36.3881 163.435 36.5649C163.738 36.7417 163.974 37.1188 164.267 37.3616C164.48 37.5262 164.727 37.6411 164.99 37.6978C165.252 37.7546 165.524 37.7518 165.786 37.6897C166.31 37.56 166.808 37.3394 167.256 37.0378C167.471 36.8746 167.73 36.7797 167.999 36.7652C168.182 36.7923 168.358 36.8584 168.513 36.959C168.89 37.1445 169.227 37.4021 169.505 37.7174C170.128 38.497 170.047 39.6921 170.385 40.6698C170.446 40.8466 170.548 41.0384 170.714 41.0575C170.816 41.058 170.915 41.0217 170.992 40.9553C171.255 40.7647 171.477 40.5233 171.644 40.2452C171.812 39.9671 171.923 39.658 171.969 39.3363C172.008 39.0892 172.012 38.8379 172.054 38.5907C172.108 38.3362 172.179 38.0857 172.267 37.8409C172.474 37.2672 172.57 36.6592 172.549 36.0494C172.545 36.0239 172.541 35.994 172.536 35.9642Z" fill="black"/>
</g>
<path d="M159.097 53.057L158.953 55.0018C158.931 55.266 158.428 61.5543 154.715 68.9035C151.529 75.2068 145.328 83.4166 133.622 88.0306C132.709 88.3928 131.761 88.7308 130.778 89.0446L129.682 85.5937C132.434 84.7252 135.084 83.5626 137.588 82.1257C143.555 78.6705 148.194 73.7391 151.429 67.3932C153.145 64.0146 154.369 60.406 155.061 56.6783H141.743V53.057H159.097Z" fill="#3C2A4D"/>
<path opacity="0.1" d="M132.189 88.0328C143.893 83.4187 150.095 75.2111 153.279 68.9078C156.992 61.5586 157.498 55.2745 157.517 55.0061L157.661 53.0612H159.148L159.004 55.0061C158.985 55.2702 158.479 61.5586 154.766 68.9078C151.58 75.2111 145.38 83.4187 133.676 88.0328C132.762 88.3949 131.813 88.7336 130.829 89.0489L130.685 88.5951C131.197 88.4119 131.699 88.2245 132.189 88.0328Z" fill="white"/>
<path d="M108.755 85.5937L107.659 89.0446C106.675 88.7293 105.726 88.3906 104.813 88.0285C93.1089 83.4145 86.9065 75.2068 83.7224 68.9035C80.0094 61.5543 79.5039 55.2702 79.4848 55.0018L79.3403 53.057H96.686V56.6783H83.3656C84.0618 60.4065 85.2887 64.015 87.0084 67.3932C90.2435 73.7391 94.8804 78.6705 100.847 82.1236C103.351 83.562 106.003 84.7254 108.755 85.5937Z" fill="#3C2A4D"/>
<path opacity="0.1" d="M106.245 88.0328C94.5406 83.4187 88.3382 75.2111 85.1541 68.9078C81.4411 61.5586 80.9356 55.2745 80.9165 55.0061L80.772 53.0612H79.2852L79.4296 55.0061C79.4487 55.2702 79.9543 61.5586 83.6672 68.9078C86.8534 75.2111 93.0537 83.4187 104.758 88.0328C105.671 88.3949 106.62 88.7336 107.604 89.0489L107.748 88.5951C107.237 88.4119 106.736 88.2245 106.245 88.0328Z" fill="white"/>
<path d="M139.256 118.953V138.48H99.1797V118.953L100.454 117.248C113.441 112.626 116.073 100.571 116.598 95.8016C116.676 95.1425 116.72 94.4799 116.731 93.8163H121.687C121.698 94.4799 121.743 95.1425 121.821 95.8016C122.354 100.571 124.986 112.63 137.964 117.248L139.256 118.953Z" fill="#3C2A4D"/>
<path opacity="0.1" d="M139.256 118.953H99.1797V121.402H139.256V118.953Z" fill="black"/>
<path opacity="0.1" d="M102.578 117.248C115.565 112.626 118.197 100.571 118.722 95.8016C118.8 95.1425 118.844 94.4799 118.855 93.8163H116.731C116.72 94.4799 116.676 95.1425 116.598 95.8016C116.064 100.571 113.433 112.63 100.454 117.248L99.1797 118.953V138.48H101.304V118.953L102.578 117.248Z" fill="white"/>
<path opacity="0.1" d="M93.0918 53.057H96.6858V56.6783H93.4104C93.2816 55.4854 93.1753 54.2783 93.0918 53.057Z" fill="black"/>
<path opacity="0.1" d="M108.755 85.5937L107.659 89.0446C106.675 88.7293 105.726 88.3906 104.813 88.0285C103.31 86.1884 101.983 84.2115 100.847 82.1236C103.351 83.562 106.003 84.7254 108.755 85.5937Z" fill="black"/>
<path opacity="0.1" d="M129.68 85.5937C132.432 84.7252 135.082 83.5626 137.586 82.1257C136.45 84.2139 135.122 86.1915 133.62 88.0328C132.707 88.3949 131.759 88.7329 130.776 89.0468L129.68 85.5937Z" fill="black"/>
<path opacity="0.1" d="M145.341 53.057C145.258 54.2783 145.151 55.4854 145.023 56.6783H141.749V53.057H145.341Z" fill="black"/>
<path opacity="0.1" d="M121.829 95.8016C120.104 96.1368 118.331 96.1368 116.606 95.8016C116.684 95.1425 116.729 94.4799 116.74 93.8163H121.695C121.706 94.4799 121.751 95.1425 121.829 95.8016Z" fill="black"/>
<path d="M93.5166 47.0583C93.6079 73.9116 105.078 95.6269 119.219 95.6269C133.359 95.6269 144.827 73.9116 144.92 47.0583H93.5166Z" fill="#3C2A4D"/>
<path opacity="0.1" d="M98.0835 47.0583H93.5166C93.6079 73.9116 105.078 95.6269 119.219 95.6269C119.984 95.6255 120.747 95.5607 121.502 95.4331C108.43 93.2432 98.1706 72.4503 98.0835 47.0583Z" fill="white"/>
<path d="M132.847 126.428H105.588V133.457H132.847V126.428Z" fill="#3F3D56"/>
<path opacity="0.1" d="M106.863 127.386H132.847V126.428H105.588V133.457H106.863V127.386Z" fill="white"/>
<path d="M78.9792 72.985C78.4886 72.821 75.5997 70.5289 75.381 69.4915C75.1622 68.4541 76.9082 58.7893 76.9082 58.7893C76.9082 58.7893 76.7468 58.7893 76.4834 58.7574V58.6019L76.8424 45.9059C76.8424 45.9059 78.3144 37.3851 75.5339 37.8814C72.7534 38.3777 74.4973 45.9059 74.4973 45.9059C74.4973 45.9059 74.1808 49.7275 73.9578 50.8735C73.7454 51.9791 72.7725 56.4823 73.4353 57.8819C73.4595 57.9316 73.4865 57.98 73.516 58.0267C73.516 58.0267 73.6264 62.8303 72.4263 63.4864C71.2814 64.1106 70.8056 67.2526 70.7652 67.5338L70.7036 67.5083C70.3618 67.2938 70.0617 67.0188 69.8179 66.6967C69.7924 66.6647 69.7733 66.6306 69.7499 66.5965C70.5314 65.7148 70.9526 64.5699 70.9294 63.3905C70.9061 62.211 70.4402 61.0837 69.6246 60.2336C69.2453 59.8386 68.8004 59.5128 68.3097 59.2708C68.2955 58.8637 68.1994 58.4638 68.0272 58.0949C67.475 56.9105 64.4162 55.3618 62.2432 55.3256C61.2406 55.2958 60.4186 55.5813 60.1191 56.3673C59.9662 56.7656 60.0129 57.2194 59.9492 57.6326C59.8217 58.4847 59.2758 59.1515 58.5749 59.6819C58.2918 59.365 57.9858 59.0695 57.6594 58.7979C56.9499 58.2525 55.5352 56.4546 55.5352 56.4546C55.5352 56.4546 51.1192 51.8683 50.7921 50.6115C50.465 49.3547 46.0531 41.8074 45.0718 43.1217C44.0905 44.436 48.4513 50.1642 48.4513 50.1642C48.4513 50.1642 49.2797 52.2454 49.9169 52.9483C50.5542 53.6513 55.4397 60.7662 55.4397 60.7662L55.6733 61.2519C54.641 61.7972 53.6979 62.4916 53.3644 63.5738C52.8758 65.1672 53.9443 66.7691 54.6835 68.2602C56.1236 71.1701 56.3297 74.8809 54.4711 77.5394C52.8057 79.8869 49.9169 81.0031 47.2129 81.9787C48.5188 83.0071 50.1411 83.5472 51.801 83.5061C51.1765 85.321 48.9632 85.9217 47.077 86.2583C48.0668 87.2126 49.4836 87.5599 50.843 87.7707C51.5089 87.8844 52.1835 87.9379 52.8588 87.9305H53.0245L53.1902 87.9177C53.4204 87.9024 53.6496 87.8732 53.8763 87.8304C54.8576 87.6301 55.8114 87.0933 56.3127 86.2242C56.7375 85.4808 56.8862 84.4668 57.6572 84.094C57.858 84.0031 58.0744 83.9518 58.2945 83.9428H58.2711C58.4156 83.9428 58.5642 83.9428 58.7087 83.9428L61.9225 83.9747C62.0563 83.9747 62.1944 83.9747 62.3324 83.9747C63.2395 83.9534 64.2081 83.7958 64.669 83.0438C64.8586 82.6786 64.9584 82.2733 64.96 81.8616C65.028 80.8412 64.96 79.791 64.9876 78.7621C65.2616 80.6346 65.5484 83.5529 64.8665 84.6308C64.3126 85.4476 63.6412 86.1776 62.8741 86.7972C62.6812 86.9598 62.5047 87.141 62.3473 87.3383C62.2432 87.4129 62.1816 87.4534 62.1816 87.4534L62.1158 87.6515C61.8737 88.0197 61.6982 88.4278 61.5975 88.8571C61.5604 88.9674 61.5467 89.0842 61.5571 89.2001C61.6315 89.3513 61.0261 89.9755 61.2024 90.2375C59.69 92.0162 59.4033 94.7109 59.4033 94.7109L56.6419 98.916C55.223 102.654 53.0989 103.038 53.0989 103.038C53.0989 103.038 48.1093 99.6807 47.9734 99.5167C47.8374 99.3526 45.9299 98.5325 45.9299 98.5325C45.705 98.137 45.3617 97.8225 44.9486 97.6336C44.2944 97.3609 44.2391 96.3555 44.2391 96.3555C44.1584 93.9803 42.7671 93.7992 42.7671 93.7992C41.6456 93.7034 40.7896 93.9036 40.1311 94.27L39.9314 94.2849C38.9671 94.3637 37.8073 94.4511 36.5328 94.5363C32.9876 94.7706 32.1444 97.0733 32.1444 97.0733C32.1444 97.0733 31.7089 97.5654 32.2803 98.098C32.8517 98.6305 36.5094 98.098 36.6645 98.0852C36.3857 98.1155 36.1038 98.096 35.8318 98.0277C36.4075 98.0064 37.1998 97.9851 37.8753 97.9851H38.0388C37.9963 98.3442 37.9757 98.7056 37.9772 99.0672C37.9772 99.7489 39.8571 100.186 39.8571 100.186L45.5816 105.298C45.5816 105.298 49.1799 106.911 51.4697 109.23C53.7595 111.55 55.7838 109.548 55.7838 109.548C58.2074 108.947 65.1809 100.492 65.1873 100.484C65.1873 100.731 65.3338 108.953 65.6121 110.604C65.6232 110.688 65.6438 110.77 65.6737 110.849C66.0008 111.559 65.5632 113.497 65.3742 114.315C65.2536 115 65.2073 115.695 65.2361 116.39C65.2361 116.39 62.6213 126.402 62.838 127.282C63.0546 128.162 61.4212 132.249 61.4212 132.249V135.658L61.7058 135.643C61.6688 135.698 61.6348 135.755 61.6039 135.813L61.5848 135.849C61.5848 135.849 63.3287 136.231 64.5012 136.122C65.6737 136.013 67.6874 137.027 67.6874 137.027C67.6874 137.027 68.3692 137.351 70.4678 137.488C72.5665 137.624 72.5665 136.559 72.5665 136.559C72.3265 135.108 69.0107 134.622 68.9087 134.608C68.6411 134.439 68.3905 134.256 68.1844 134.098L68.1419 134.064C68.1558 134.032 68.1679 134 68.178 133.966C68.5328 132.518 66.5701 131.889 66.5701 131.889V131.536C67.8446 130.88 68.0973 126.376 68.0973 126.376C68.0973 126.376 70.009 120.808 70.2767 119.879C70.5443 118.951 70.2767 117.559 70.2767 117.559L70.4678 116.358C70.4678 116.358 70.8778 115.54 70.8778 115.376C70.9309 114.96 71.0904 114.565 71.3409 114.23C71.6404 113.874 71.0138 113.029 71.0138 113.029L71.5597 111.61V110.053L72.8341 104.403C72.8341 104.403 74.1702 97.8232 73.7071 95.6695C73.2441 93.5159 74.253 92.421 74.253 92.421C74.1621 92.4689 74.0685 92.5116 73.9727 92.5488C74.1002 92.2531 74.2102 91.9501 74.3019 91.6413L77.1695 91.9971V92.0397H78.2039C78.2039 92.0397 77.8768 87.9923 77.8768 86.3606C77.8768 84.7288 78.9792 78.8729 78.9792 78.8729C78.9792 78.8729 79.4699 73.149 78.9792 72.985ZM66.2493 68.2602C66.2493 68.42 66.2345 68.5861 66.2238 68.7566L66.1665 68.8439L66.0603 68.7544L65.9307 68.9568L65.8925 68.976C65.6121 68.8311 65.4677 68.0025 65.2659 68.1814L65.2383 68.2048C65.1936 68.1537 65.149 68.1388 65.1023 68.1814L65.0598 68.2176C65.0598 68.1558 65.0598 68.0919 65.0598 68.028C65.4484 68.1283 65.8481 68.1791 66.2493 68.1793C66.2515 68.207 66.2493 68.2347 66.2493 68.2602ZM75.7867 87.1082H75.8483L75.7463 87.3767C75.759 87.2872 75.7718 87.1998 75.7867 87.1082ZM65.3168 135.415L64.926 135.317L65.1384 135.281L65.336 135.411L65.3593 135.428L65.3168 135.415ZM69.3102 134.842C69.1806 134.774 69.0489 134.695 68.9215 134.614C68.964 134.637 69.1318 134.725 69.3102 134.842Z" fill="url(#paint1_linear)"/>
<path d="M77.197 83.0843L74.6247 89.8072H75.2492L72.8298 91.7414L77.197 92.2868V83.0843Z" fill="#F86D70"/>
<path opacity="0.1" d="M77.197 83.0843L74.6247 89.8072L73.9769 89.6325L72.8298 91.7414L77.197 92.2868V83.0843Z" fill="black"/>
<path d="M73.1633 87.3852H77.197L78.6776 75.1685H73.1633V87.3852Z" fill="#F86D70"/>
<path opacity="0.1" d="M73.1633 87.3852H77.197L78.6776 75.1685H73.1633V87.3852Z" fill="black"/>
<path d="M65.2849 78.0613L66.1558 77.9143L68.1567 77.5735C68.1567 77.5735 74.1659 76.2144 75.4064 76.1036C76.1579 76.0041 76.8907 75.7946 77.5815 75.4816C77.9065 75.341 78.1125 75.2345 78.1125 75.2345L75.948 71.2702L72.5898 68.7736C72.5898 68.7736 70.4657 68.3199 69.5672 67.0801C69.3666 66.8133 69.2361 66.5004 69.1875 66.1699C69.1389 65.8394 69.1737 65.5019 69.2889 65.1885C69.8369 63.4843 66.0156 66.8181 66.0156 66.8181C66.0156 66.8181 66.0517 67.6169 66.0156 68.6351C66.0156 68.8354 65.9965 69.0441 65.9816 69.2572C65.9816 69.3978 65.9625 69.5383 65.9477 69.6832C65.8542 70.695 65.663 71.7367 65.2849 72.3587C64.3609 73.8797 65.2849 78.0613 65.2849 78.0613Z" fill="#FBBEBE"/>
<path opacity="0.1" d="M66.0156 68.7203H66.1006C66.2535 68.7203 66.3767 68.3944 66.5254 68.3795C67.7213 68.2645 68.8131 68.0131 69.5714 67.1632C69.3714 66.8965 69.2412 66.584 69.1926 66.2539C69.144 65.9239 69.1785 65.5869 69.2931 65.2737C69.8412 63.5695 66.0199 66.9011 66.0199 66.9011C66.0199 66.9011 66.0602 67.7021 66.0156 68.7203Z" fill="black"/>
<path d="M61.3638 63.889C61.3635 64.5023 61.4837 65.1096 61.7176 65.6763C61.9515 66.2429 62.2945 66.7578 62.7269 67.1914C63.1593 67.6251 63.6727 67.969 64.2377 68.2036C64.8027 68.4381 65.4083 68.5587 66.0199 68.5584C66.1728 68.5584 66.3236 68.5584 66.4744 68.5371C67.3716 68.4489 68.2239 68.1013 68.9279 67.5367C69.6319 66.9721 70.1574 66.2146 70.4404 65.3563C70.7235 64.498 70.752 63.5757 70.5226 62.7014C70.2931 61.8272 69.8155 61.0385 69.1477 60.4312C68.48 59.8239 67.6508 59.424 66.7608 59.2801C65.8708 59.1363 64.9583 59.2546 64.1341 59.6207C63.3099 59.9869 62.6094 60.5851 62.1176 61.3428C61.6258 62.1005 61.364 62.985 61.3638 63.889Z" fill="#FBBEBE"/>
<path d="M59.9344 56.8019C59.7814 57.1981 59.8282 57.6412 59.7666 58.0608C59.5393 59.5754 58.0035 60.4828 56.6144 61.1177C55.2252 61.7525 53.6576 62.5044 53.2158 63.9679C52.7315 65.5506 53.7893 67.1376 54.5242 68.6224C55.9559 71.5152 56.1598 75.2047 54.3118 77.8504C52.6699 80.1936 49.8087 81.3056 47.1153 82.2812C48.4116 83.3039 50.0226 83.8417 51.6715 83.8022C51.0534 85.6065 48.8549 86.205 46.9814 86.5374C47.9649 87.4874 49.3732 87.8325 50.722 88.0413C51.7055 88.1947 52.7145 88.2948 53.6958 88.0967C54.6772 87.8986 55.6075 87.3639 56.1131 86.499C56.5379 85.7598 56.6823 84.7523 57.4491 84.3795C57.7953 84.2428 58.1682 84.1882 58.5388 84.2197L61.725 84.2538C62.717 84.2538 63.8916 84.1771 64.4035 83.3271C64.5924 82.9641 64.6914 82.5608 64.6924 82.1513C64.8305 80.0552 64.429 77.8397 65.2893 75.9268C65.5484 75.3495 63.8852 74.4357 64.0594 73.8243C64.6584 71.7218 64.8092 70.0666 64.8029 67.8789C64.8029 66.1854 65.901 64.7262 66.808 63.2969C67.715 61.8675 68.4734 60.0632 67.7575 58.5295C66.9504 56.8189 60.8881 54.333 59.9344 56.8019Z" fill="#3F3D56"/>
<path d="M64.1763 134.801L64.9877 135.34L65.113 135.423L65.1364 135.438L66.0986 136.077L68.3459 136.457L70.3214 136.32C70.3214 136.32 70.8906 135.127 69.9964 135.155C69.7099 135.14 69.4308 135.059 69.1807 134.919L69.0575 134.857C68.9279 134.789 68.7984 134.712 68.6709 134.631C68.4054 134.463 68.1548 134.279 67.953 134.124C67.6556 133.894 67.458 133.719 67.458 133.719L64.1763 134.801Z" fill="#FBBEBE"/>
<path opacity="0.1" d="M64.9983 135.34L65.1236 135.423L65.147 135.438L66.1092 136.077L68.3565 136.457L70.332 136.32C70.332 136.32 70.9012 135.127 70.007 135.155C69.7205 135.14 69.4414 135.059 69.1913 134.919C69.3485 135.042 69.4802 135.176 69.4929 135.289C69.529 135.594 68.0315 136.141 68.0315 136.141L65.9202 135.581C65.9202 135.581 65.5612 135.479 65.0705 135.351L65.0238 135.338L64.9983 135.34Z" fill="black"/>
<path d="M61.3872 135.86C61.3872 135.86 63.1184 136.239 64.2824 136.131C65.4464 136.022 67.4516 137.027 67.4516 137.027C67.4516 137.027 68.1292 137.347 70.2129 137.483C72.2967 137.62 72.2967 136.559 72.2967 136.559C72.0588 135.117 68.7664 134.642 68.6645 134.62C68.7048 134.642 68.8769 134.729 69.0511 134.846C69.2847 134.999 69.5375 135.2 69.5566 135.362C69.5927 135.664 68.0952 136.214 68.0952 136.214L65.9838 135.656C65.9838 135.656 65.6248 135.551 65.1342 135.423H65.0874C64.3599 135.225 63.6207 135.072 62.8741 134.965C61.965 134.867 61.4998 135.643 61.4042 135.817C61.3973 135.831 61.3916 135.845 61.3872 135.86Z" fill="#3F3D56"/>
<path d="M34.1008 97.5526L35.0206 98.2599C35.0206 98.2599 35.2882 98.2471 35.6876 98.2343H35.815C36.3864 98.213 37.1744 98.1917 37.8435 98.1917C38.2761 98.1722 38.7095 98.1964 39.1371 98.2641C39.5959 98.426 40.4116 95.6312 40.4116 95.6312L39.4897 95.4182L39.1839 95.3457L38.9715 95.2946L38.2216 95.1178L35.9488 95.3777L34.3515 96.4087L34.1008 97.5526Z" fill="#FBBEBE"/>
<path opacity="0.1" d="M34.1008 97.5526L35.0206 98.2599C35.0206 98.2599 35.2882 98.2471 35.6876 98.2343C35.5043 98.1634 35.3532 98.0278 35.2627 97.853C34.668 96.1978 37.6184 95.4906 37.6184 95.4906L38.9927 95.4309L39.2603 95.4182H39.4727L39.1669 95.3457L38.9545 95.2946L38.2046 95.1178L35.9318 95.3777L34.3345 96.4087L34.1008 97.5526Z" fill="black"/>
<path d="M32.2868 98.3003C32.8433 98.8158 36.4883 98.3003 36.6412 98.2876C36.3646 98.3188 36.0846 98.2993 35.815 98.23C35.6815 98.2061 35.555 98.1525 35.4447 98.0733C35.3345 97.994 35.2433 97.8911 35.1777 97.772C34.583 96.1147 37.5334 95.4097 37.5334 95.4097L38.9077 95.35L39.1732 95.3372L42.5145 95.1924L42.6759 94.27C42.6759 94.27 41.5905 94.3723 39.8869 94.5086C38.9289 94.5874 37.7628 94.6747 36.5032 94.7578C32.9835 94.9921 32.1466 97.2821 32.1466 97.2821C32.1466 97.2821 31.7196 97.772 32.2868 98.3003Z" fill="#3F3D56"/>
<path d="M73.1655 58.3164C73.1881 58.367 73.2151 58.4155 73.2462 58.4613L74.0576 59.6542L76.169 59.8672L76.1923 59.0279L76.5471 46.4001C76.5471 46.4001 78.0085 37.9304 75.2471 38.4182C72.4857 38.906 74.219 46.4001 74.219 46.4001C74.219 46.4001 73.9047 50.2004 73.6838 51.3421C73.4692 52.4456 72.507 56.9318 73.1655 58.3164Z" fill="#FBBEBE"/>
<path d="M68.4265 89.6815L69.0276 90.7126L70.3722 93.0196C70.3722 93.0196 72.8107 93.9164 73.4352 93.2326C73.7772 92.8598 74.1468 91.5583 74.4059 90.4633C74.6183 89.5772 74.7607 88.8295 74.7607 88.8295L68.4265 89.6815Z" fill="#FBBEBE"/>
<path opacity="0.1" d="M68.4265 89.6815L69.0276 90.7125C69.0653 90.68 69.0995 90.6436 69.1296 90.6039C69.8093 89.7348 72.8022 90.4186 74.4059 90.474C74.6183 89.5878 74.7607 88.8401 74.7607 88.8401L68.4265 89.6815Z" fill="black"/>
<path opacity="0.1" d="M37.8435 98.1874C38.276 98.1679 38.7094 98.1922 39.1371 98.2599C39.5959 98.4218 40.4116 95.6269 40.4116 95.6269L39.1838 95.3372L42.5251 95.1924L42.6865 94.27C42.6865 94.27 41.6011 94.3723 39.8975 94.5086C39.5455 94.7119 39.2314 94.9749 38.9693 95.2861L38.9183 95.35C38.2067 96.2255 37.9433 97.3545 37.8435 98.1874Z" fill="black"/>
<path opacity="0.1" d="M64.1763 134.801L65.113 135.423C66.5107 135.17 67.7873 134.772 67.9381 134.145C67.9388 134.135 67.9388 134.125 67.9381 134.115C67.6407 133.885 67.4432 133.711 67.4432 133.711L64.1763 134.801Z" fill="black"/>
<path opacity="0.1" d="M61.4062 135.824C62.6405 135.762 63.8703 135.63 65.0895 135.428C64.3613 135.227 63.6214 135.073 62.874 134.965C61.967 134.867 61.5018 135.643 61.4062 135.824Z" fill="black"/>
<path d="M37.9453 99.2632C37.9453 99.9427 39.8124 100.377 39.8124 100.377L45.4987 105.454C45.4987 105.454 49.0715 107.055 51.3443 109.362C53.6171 111.669 55.6223 109.688 55.6223 109.688C58.031 109.092 64.9684 100.676 64.9684 100.676C64.9684 100.676 65.1299 110.287 65.4549 110.992C65.7799 111.697 65.3465 113.625 65.1575 114.441C65.0382 115.121 64.9926 115.813 65.0215 116.503C65.0215 116.503 62.4237 126.466 62.6404 127.335C62.8571 128.204 61.2321 132.277 61.2321 132.277V135.67C61.2321 135.67 67.5939 135.425 67.9443 133.988C68.2948 132.55 66.3491 131.923 66.3491 131.923V131.57C67.6236 130.918 67.8636 126.44 67.8636 126.44C67.8636 126.44 69.7605 120.902 70.0302 119.979C70.3 119.057 70.0302 117.67 70.0302 117.67L70.2193 116.477C70.2193 116.477 70.625 115.661 70.625 115.5C70.678 115.086 70.8368 114.694 71.0859 114.36C71.3833 114.006 70.7609 113.165 70.7609 113.165L71.3026 111.753V110.206L72.5771 104.587C72.5771 104.587 73.9046 98.0426 73.4437 95.8975C72.9828 93.7523 73.9854 92.6681 73.9854 92.6681C71.8124 93.8099 70.7163 91.2685 70.3574 90.1757C70.266 89.8946 70.2214 89.7071 70.2214 89.7071C70.2214 89.7071 67.237 88.6037 64.4587 88.8678C63.8944 88.9137 63.3383 89.0318 62.804 89.2193C59.7176 90.3334 59.2312 94.9474 59.2312 94.9474L56.4974 99.129C55.0891 102.848 52.9778 103.227 52.9778 103.227C52.9778 103.227 48.0243 99.8895 47.8799 99.7254C47.7354 99.5614 45.8492 98.7477 45.8492 98.7477C45.6262 98.354 45.285 98.0409 44.8742 97.853C44.2242 97.5803 44.1711 96.5749 44.1711 96.5749C44.0904 94.2125 42.7097 94.0186 42.7097 94.0186C37.9177 93.6181 37.9453 98.5858 37.9453 99.2632Z" fill="#3F3D56"/>
<path d="M65.5037 85.9899H68.4265V76.8961H65.5037V85.9899Z" fill="#F86D70"/>
<path opacity="0.1" d="M65.5037 85.9899H68.4265V76.8961H65.5037V85.9899Z" fill="black"/>
<path opacity="0.1" d="M73.1634 58.2973C73.163 58.3037 73.163 58.3101 73.1634 58.3164C73.186 58.367 73.2131 58.4155 73.2442 58.4613L74.0556 59.6542L76.1669 59.8672L76.1903 59.0279C75.5318 58.9768 74.0322 58.7957 73.1634 58.2973Z" fill="black"/>
<path d="M73.2463 58.4613C73.2463 58.4613 73.3546 63.2372 72.163 63.889C70.9714 64.5409 70.5083 67.9364 70.5083 67.9364C70.5083 67.9364 74.1193 70.318 74.9244 71.3661C75.7294 72.4141 77.5774 74.9107 77.1972 75.5072C76.817 76.1036 78.119 78.8196 78.119 78.8196C78.119 78.8196 75.7358 83.7063 76.2774 85.5532C76.8191 87.4001 76.8722 92.2847 76.8722 92.2847H77.9024C77.9024 92.2847 77.5774 88.2671 77.5774 86.6375C77.5774 85.0079 78.6586 79.1988 78.6586 79.1988C78.6586 79.1988 79.1471 73.4984 78.6586 73.3365C78.17 73.1746 75.3024 70.8932 75.0858 69.86C74.8691 68.8269 76.6024 59.209 76.6024 59.209C76.6024 59.209 74.3827 59.1131 73.2463 58.4613Z" fill="#F86D70"/>
<path opacity="0.1" d="M65.4485 76.0525C65.5473 76.7171 65.7886 77.3523 66.1558 77.9143L68.1567 77.5735C68.1567 77.5735 74.1659 76.2144 75.4064 76.1036C76.1579 76.0041 76.8907 75.7945 77.5815 75.4816C77.1054 73.7897 76.1761 72.2609 74.8945 71.0614L74.1319 70.3521C73.0082 69.3058 71.7059 68.471 70.2872 67.8874C70.3765 67.962 76.6809 73.3599 75.3002 74.4186C73.9195 75.4773 70.2023 72.8998 70.2023 72.8998L65.9753 69.2572L65.8223 69.1251L65.5781 69.5064C65.7023 69.5577 65.8236 69.616 65.9413 69.6811C67.3819 70.4741 68.451 71.8066 68.9151 73.3876C69.7838 76.3166 65.4485 76.0525 65.4485 76.0525Z" fill="black"/>
<path d="M64.1487 89.6262C64.1487 89.6262 68.1548 91.8522 69.1276 90.6039C69.34 90.3291 69.7882 90.2098 70.3469 90.1779C70.2555 89.8967 70.2109 89.7092 70.2109 89.7092C70.2109 89.7092 67.2265 88.6058 64.4482 88.8699C64.2655 89.3301 64.1487 89.6262 64.1487 89.6262Z" fill="#444053"/>
<path d="M65.9924 69.1294L70.3724 72.9083C70.3724 72.9083 74.0747 75.4944 75.4703 74.4272C76.8658 73.3599 70.4552 67.8938 70.4552 67.8938C71.8708 68.4791 73.1718 69.3114 74.2978 70.3521L75.0603 71.0614C77.0655 72.9254 77.5179 72.9254 77.5859 75.6648C77.6029 76.3401 77.3735 77.3093 77.1972 77.484C76.5472 78.1231 76.0927 82.7648 76.1925 83.308C76.2923 83.8512 74.9817 88.5398 75.4066 89.8434C75.8314 91.1471 70.0962 89.1916 69.1255 90.442C68.1548 91.6925 64.1487 89.4643 64.1487 89.4643C64.1487 89.4643 66.3684 83.7617 66.91 83.3825C67.4517 83.0034 68.1017 80.0701 66.91 78.7131C65.7184 77.3562 65.6122 76.0525 65.6122 76.0525C65.6122 76.0525 69.9454 76.3209 69.0767 73.3919C68.8323 72.5429 68.4082 71.7567 67.8335 71.087C67.2587 70.4172 66.5467 69.8795 65.746 69.5107L65.9924 69.1294Z" fill="#E8E8F0"/>
<path opacity="0.1" d="M71.838 78.7408C71.838 78.7408 70.1578 81.9169 67.9848 82.7413C67.9147 82.7669 67.8467 82.7903 67.7724 82.8116C65.5038 83.504 72.0079 79.725 71.838 78.7408Z" fill="black"/>
<path d="M48.3408 50.6413C48.3408 50.6413 49.1522 52.7055 49.8022 53.4106C50.4522 54.1157 55.2697 61.1752 55.2697 61.1752L55.6776 62.0273L56.028 62.7537L59.1144 62.4277L59.3268 61.1794L59.2078 61.0346C58.8977 60.6618 58.0523 59.6606 57.4852 59.2239C56.7821 58.6828 55.3738 56.8913 55.3738 56.8913C55.3738 56.8913 50.9896 52.3284 50.6646 51.0801C50.3396 49.8318 45.9533 42.3463 44.9805 43.6415C44.0076 44.9366 48.3408 50.6413 48.3408 50.6413Z" fill="#FBBEBE"/>
<g opacity="0.1">
<path opacity="0.1" d="M57.2962 84.2197C56.9257 84.1876 56.5528 84.2415 56.2065 84.3773C55.4418 84.7501 55.2974 85.7577 54.8726 86.4969C54.3755 87.3618 53.4282 87.8964 52.4532 88.0945C52.2594 88.1322 52.0637 88.1593 51.8669 88.1755C52.4879 88.2361 53.1143 88.2088 53.7277 88.0945C54.7027 87.8964 55.65 87.3618 56.1471 86.4969C56.5719 85.7577 56.7163 84.7501 57.481 84.3773C57.6818 84.2867 57.8982 84.2361 58.1182 84.2282L57.2962 84.2197Z" fill="black"/>
<path opacity="0.1" d="M64.8412 67.8789C64.8412 66.1854 65.9393 64.7262 66.8442 63.2969C67.7491 61.8675 68.5095 60.0632 67.7937 58.5295C67.1819 57.2194 63.4945 55.462 61.3661 55.8092C63.4498 56.0797 66.0179 57.4558 66.5192 58.5295C67.235 60.0632 66.4746 61.8675 65.5697 63.2969C64.6648 64.7262 63.5624 66.1854 63.5667 67.8789C63.5667 70.0645 63.4201 71.7133 62.8211 73.8243C62.6491 74.4314 64.308 75.3496 64.0531 75.9247C63.1907 77.8419 63.5943 80.053 63.4562 82.1492C63.4533 82.5587 63.3536 82.9617 63.1652 83.325C62.7404 84.0259 61.8695 84.2069 61.022 84.2453H61.7633C62.7531 84.2453 63.9278 84.1686 64.4397 83.3186C64.6281 82.9553 64.7278 82.5523 64.7307 82.1428C64.8688 80.0466 64.4652 77.8334 65.3276 75.9183C65.5867 75.3432 63.9235 74.4272 64.0956 73.8179C64.6946 71.7218 64.8454 70.0645 64.8412 67.8789Z" fill="black"/>
</g>
<path opacity="0.1" d="M55.6775 62.023L56.028 62.7494L59.1143 62.4235L59.3267 61.1752L59.2078 61.0303C58.8785 61.1922 56.4124 62.383 55.6775 62.023Z" fill="black"/>
<path opacity="0.1" d="M67.0734 70.1881C67.0734 70.1881 66.3151 68.9951 65.8818 69.3189C65.4484 69.6427 65.2806 68.3412 65.0321 68.5584C64.7836 68.7757 64.0593 69.3807 63.7576 68.535C63.5219 67.8619 60.9559 63.6036 59.9151 61.8909C59.6474 61.4478 59.4796 61.1752 59.4796 61.1752C59.4796 61.1752 56.5568 62.6407 55.8538 62.1529V63.184L56.4485 63.2393L59.6347 69.2039C59.6347 69.2039 60.6373 70.8037 60.5693 71.3618C60.5013 71.9199 61.8544 74.3633 62.0711 74.5251C62.2877 74.687 64.62 77.4031 64.62 77.4031C64.62 77.4031 65.8117 83.2675 64.7815 84.8971C63.7513 86.5267 61.967 87.7196 61.967 87.7196C61.967 87.7196 61.4296 89.2938 61.5082 89.4579C61.5868 89.6219 60.8837 90.327 61.2087 90.5443C61.5337 90.7615 61.967 92.2804 61.967 92.2804C61.967 92.2804 63.4836 89.837 64.3035 89.4579C65.1234 89.0787 66.1728 84.0812 66.1728 84.0812C66.1728 84.0812 66.4723 81.1373 66.4956 79.2372C66.519 77.337 66.4234 70.1881 67.0734 70.1881Z" fill="black"/>
<path d="M66.9101 70.1881C66.9101 70.1881 66.1539 68.9951 65.7206 69.3189C65.2872 69.6427 65.1173 68.3412 64.8709 68.5584C64.6245 68.7757 63.9002 69.3807 63.5964 68.535C63.3585 67.8619 60.7926 63.6036 59.7539 61.8909L59.3184 61.1752C59.3184 61.1752 56.3956 62.6407 55.6904 62.1529V63.184L56.2873 63.2393L59.4735 69.2039C59.4735 69.2039 60.4782 70.8037 60.4081 71.3618C60.338 71.9199 61.6826 74.3633 61.9099 74.5252C62.1372 74.687 64.4588 77.4031 64.4588 77.4031C64.4588 77.4031 65.6505 83.2675 64.6224 84.8971C64.0793 85.7156 63.4186 86.4492 62.6618 87.0742C62.0261 87.6001 61.5787 88.3195 61.3873 89.1234C61.3505 89.233 61.3374 89.3492 61.3491 89.4643C61.4277 89.6262 60.7246 90.3334 61.0496 90.5507C61.3746 90.768 61.8122 92.2932 61.8122 92.2932C61.8122 92.2932 63.3288 89.8498 64.1487 89.4707C64.9686 89.0915 66.0201 84.094 66.0201 84.094C66.0201 84.094 66.3174 81.1501 66.3429 79.2499C66.3684 77.3498 66.2728 70.1881 66.9101 70.1881Z" fill="#F86D70"/>
<path opacity="0.1" d="M59.4924 94.8942C59.4924 94.8942 61.7673 95.3202 62.6786 95.9784C63.5898 96.6367 59.2141 94.9474 59.2141 94.9474L59.4924 94.8942Z" fill="black"/>
<path opacity="0.1" d="M64.9622 100.676C64.9622 100.676 67.3348 102.659 66.91 104.45C66.4852 106.242 65.3891 110.749 65.3891 110.749L64.9622 100.676Z" fill="black"/>
<path opacity="0.1" d="M44.2115 96.8625C44.2115 96.8625 40.8681 97.2289 41.0848 97.6634C41.3015 98.098 44.2115 97.2629 44.2115 97.2629V96.8625Z" fill="black"/>
<path opacity="0.1" d="M69.8837 113.354C69.8837 113.354 70.0961 113.625 68.8556 113.354C67.6152 113.084 68.5307 112.249 68.5307 112.249L69.8837 113.354Z" fill="black"/>
<path opacity="0.1" d="M69.4589 117.102C69.4589 117.102 67.7596 117.372 66.8484 117.102C65.9371 116.831 69.4589 117.102 69.4589 117.102Z" fill="black"/>
<path opacity="0.1" d="M65.9626 131.762C65.9626 131.762 65.6652 131.436 64.1762 132.032C62.6872 132.629 62.0924 132.656 61.6591 132.458C61.2258 132.26 65.9626 131.762 65.9626 131.762Z" fill="black"/>
<path opacity="0.1" d="M67.6153 96.4002L65.5039 99.3463C65.5039 99.3463 66.6403 96.7666 67.6153 96.4002Z" fill="black"/>
<path opacity="0.1" d="M63.5114 69.3189C63.5114 69.3189 63.42 70.2967 62.0585 70.678C60.6969 71.0593 60.4377 71.3682 60.4377 71.3682" fill="black"/>
<path opacity="0.1" d="M59.9727 62.2318C59.9727 62.2318 58.1757 63.5099 56.3 63.2393L59.9727 62.2318Z" fill="black"/>
<path opacity="0.1" d="M61.3406 89.5985C61.3406 89.5985 61.8652 89.9287 63.1248 88.4843L61.3406 89.5985Z" fill="black"/>
<path opacity="0.1" d="M74.4229 74.2844C74.4739 74.0203 74.2912 73.7753 74.1192 73.5687L73.7666 73.1426C73.6977 73.0555 73.6201 72.9755 73.535 72.9041C73.3226 72.74 73.0507 72.6911 72.8298 72.5441" fill="black"/>
<path opacity="0.1" d="M188.472 0.0234303C188.472 0.0234303 170.589 -1.05871 172.691 11.5095C172.691 11.5095 172.267 13.7313 174.28 14.7389C174.28 14.7389 174.312 13.808 176.116 14.1254C176.758 14.2321 177.41 14.2636 178.059 14.2191C178.936 14.1584 179.77 13.8129 180.434 13.2349C180.434 13.2349 185.462 11.1516 187.416 2.91199C187.416 2.91199 188.862 1.1141 188.805 0.651841L185.787 1.94487C185.787 1.94487 186.819 4.12833 185.999 5.94326C185.999 5.94326 185.901 2.02369 185.322 2.1089C185.205 2.12807 183.754 2.86512 183.754 2.86512C183.754 2.86512 185.528 6.66753 184.189 9.43254C184.189 9.43254 184.697 4.74609 183.2 3.13992L181.075 4.38396C181.075 4.38396 183.149 8.31205 181.742 11.518C181.742 11.518 182.103 6.6015 180.627 4.68645L178.703 6.1925C178.703 6.1925 180.651 10.0652 179.463 12.7237C179.463 12.7237 179.308 6.99985 178.286 6.56742C178.286 6.56742 176.602 8.05855 176.345 8.66779C176.345 8.66779 177.679 11.4797 176.85 12.9623C176.85 12.9623 176.343 9.14922 175.926 9.12792C175.926 9.12792 174.248 11.6543 174.074 13.3883C174.074 13.3883 174.146 10.8129 175.521 8.88934C175.521 8.88934 173.898 9.16839 172.951 10.2228C172.951 10.2228 173.212 8.43773 175.935 8.28223C175.935 8.28223 177.322 6.36505 177.692 6.24789C177.692 6.24789 174.986 6.02208 173.344 6.75061C173.344 6.75061 174.788 5.06562 178.189 5.83249L180.09 4.27532C180.09 4.27532 176.526 3.7875 175.013 4.32644C175.013 4.32644 176.753 2.8353 180.602 3.9217L182.671 2.68192C182.671 2.68192 179.631 2.02582 177.821 2.25588C177.821 2.25588 179.733 1.22274 183.278 2.34322L184.765 1.67647C184.765 1.67647 182.539 1.23765 181.887 1.16735C181.235 1.09705 181.201 0.918116 181.201 0.918116C182.611 0.682272 184.059 0.843776 185.383 1.38463C185.383 1.38463 188.527 0.221539 188.472 0.0234303Z" fill="#3C2A4D"/>
<path opacity="0.1" d="M166.415 3.22088C166.415 3.22088 158.343 2.73093 159.288 8.41005C159.288 8.41005 159.099 9.41551 160.004 9.87137C160.004 9.87137 160.019 9.44533 160.835 9.59231C161.124 9.64121 161.419 9.65551 161.712 9.63492C162.108 9.6079 162.485 9.45154 162.784 9.1897C162.784 9.1897 165.057 8.25029 165.941 4.52669C165.941 4.52669 166.593 3.71295 166.568 3.50419L165.204 4.08787C165.204 4.08787 165.671 5.07628 165.304 5.89641C165.304 5.89641 165.259 4.12408 164.998 4.16669C164.945 4.16669 164.288 4.50752 164.288 4.50752C164.288 4.50752 165.091 6.22659 164.486 7.47702C164.486 7.47702 164.715 5.3596 164.038 4.6332L163.078 5.19557C163.078 5.19557 164.016 6.97003 163.379 8.41857C163.379 8.41857 163.543 6.19677 162.876 5.33191L162.007 6.01996C162.007 6.01996 162.886 7.77099 162.351 8.97029C162.351 8.97029 162.281 6.38423 161.818 6.19038C161.818 6.19038 161.058 6.86352 160.941 7.14045C160.941 7.14045 161.544 8.41857 161.17 9.07893C161.17 9.07893 160.941 7.3556 160.745 7.34921C160.745 7.34921 159.989 8.491 159.908 9.26639C159.946 8.54274 160.172 7.84153 160.563 7.23205C160.125 7.31517 159.721 7.52471 159.401 7.8349C159.401 7.8349 159.52 7.02968 160.75 6.95725C160.75 6.95725 161.387 6.09239 161.544 6.03913C161.544 6.03913 160.32 5.93688 159.579 6.26707C159.579 6.26707 160.231 5.50445 161.769 5.84103L162.619 5.13806C162.619 5.13806 161.009 4.92504 160.325 5.16149C160.325 5.16149 161.111 4.48835 162.85 4.97829L163.785 4.41805C163.785 4.41805 162.413 4.11982 161.593 4.22846C161.593 4.22846 162.457 3.75982 164.059 4.26681L164.728 3.96645C164.728 3.96645 163.721 3.76621 163.426 3.73638C163.131 3.70656 163.116 3.62348 163.116 3.62348C163.754 3.5171 164.408 3.59086 165.006 3.8365C165.006 3.8365 166.44 3.31034 166.415 3.22088Z" fill="#3C2A4D"/>
<path d="M194.61 138.625C199.327 138.625 203.151 137.977 203.151 137.177C203.151 136.377 199.327 135.728 194.61 135.728C189.893 135.728 186.069 136.377 186.069 137.177C186.069 137.977 189.893 138.625 194.61 138.625Z" fill="#3C2A4D"/>
<path d="M198.143 134.808C198.533 134.489 198.817 134.059 198.956 133.574C199.062 133.087 198.854 132.509 198.387 132.32C197.864 132.119 197.306 132.484 196.883 132.85C196.46 133.216 195.974 133.636 195.422 133.557C195.706 133.298 195.919 132.969 196.04 132.603C196.16 132.237 196.185 131.846 196.11 131.468C196.086 131.311 196.02 131.164 195.919 131.042C195.628 130.731 195.103 130.863 194.755 131.108C193.65 131.887 193.342 133.393 193.336 134.746C193.225 134.258 193.319 133.749 193.317 133.255C193.315 132.761 193.177 132.19 192.754 131.928C192.493 131.787 192.2 131.718 191.904 131.727C191.409 131.708 190.855 131.759 190.517 132.124C190.092 132.575 190.205 133.334 190.57 133.828C190.936 134.322 191.494 134.639 192.008 134.982C192.419 135.228 192.77 135.564 193.034 135.964C193.066 136.02 193.092 136.08 193.111 136.141H196.225C196.921 135.786 197.566 135.337 198.143 134.808Z" fill="#3C2A4D"/>
</g>
<defs>
<linearGradient id="paint0_linear" x1="171.738" y1="107.56" x2="171.738" y2="21.8623" gradientUnits="userSpaceOnUse">
<stop stop-color="#808080" stop-opacity="0.25"/>
<stop offset="0.54" stop-color="#808080" stop-opacity="0.12"/>
<stop offset="1" stop-color="#808080" stop-opacity="0.1"/>
</linearGradient>
<linearGradient id="paint1_linear" x1="8464.94" y1="53379.6" x2="18956.3" y2="53379.6" gradientUnits="userSpaceOnUse">
<stop stop-color="#808080" stop-opacity="0.25"/>
<stop offset="0.54" stop-color="#808080" stop-opacity="0.12"/>
<stop offset="1" stop-color="#808080" stop-opacity="0.1"/>
</linearGradient>
<clipPath id="clip0">
<rect width="243" height="139" fill="white"/>
</clipPath>
</defs>
</svg>
