<svg width="200" height="148" viewBox="0 0 200 148" fill="none" xmlns="http://www.w3.org/2000/svg">
<g clip-path="url(#clip0)">
<path opacity="0.1" d="M2.15259 70.7296C5.31071 82.9348 11.9906 93.4855 22.5468 98.6C44.4918 109.229 93.9836 103.747 130.921 97.4546C150.028 94.2001 166.822 85.2184 179.022 72.5787L2.15259 70.7296Z" fill="#3C2A4D"/>
<path opacity="0.1" d="M195.851 13.278H175.584C174.622 13.278 173.833 12.5652 173.833 11.6943C173.833 10.8235 174.622 10.1089 175.584 10.1089H179.09C178.126 10.1089 177.339 9.39621 177.339 8.5235C177.339 7.65078 178.126 6.93989 179.09 6.93989H176.588C175.624 6.93989 174.835 6.22717 174.835 5.35446C174.835 4.48175 175.624 3.77085 176.588 3.77085H187.166C184.819 2.7836 182.075 2.08179 178.913 1.71271C150.068 -1.63814 139.77 0.578185 136.138 2.85633C131.61 5.73127 126.58 7.72612 121.312 8.73622C103.516 12.058 70.2352 16.0543 40.0703 7.46351C25.0778 3.18541 13.9344 10.4053 7.25635 22.4742H199.371C199.12 18.9669 198.369 15.727 196.991 12.8925C196.665 13.1445 196.263 13.2802 195.851 13.278Z" fill="#3C2A4D"/>
<path opacity="0.1" d="M0.434695 45.2537C-0.343753 52.3521 -0.079136 59.5261 1.22013 66.5479L179.159 72.4369C184.057 67.3567 188.219 61.6149 191.522 55.379L0.434695 45.2537ZM70.8116 60.4443H67.308C68.2716 60.4443 69.0607 61.1589 69.0607 62.0298C69.0607 62.9007 68.2716 63.6134 67.308 63.6134H47.0411C46.0793 63.6134 45.2902 62.9007 45.2902 62.0298C45.2902 61.1589 46.0793 60.4443 47.0411 60.4443H50.5465C49.5829 60.4443 48.7956 59.7316 48.7956 58.8607C48.7956 57.9898 49.5829 57.2753 50.5465 57.2753H48.0429C47.0793 57.2753 46.2902 56.5626 46.2902 55.6917C46.2902 54.8208 47.0793 54.1063 48.0429 54.1063H68.3098C69.2734 54.1063 70.0607 54.819 70.0607 55.6917C70.0607 56.5644 69.2734 57.2753 68.3098 57.2753H70.8116C71.7752 57.2753 72.5625 57.988 72.5625 58.8607C72.5625 59.7334 71.7752 60.4443 70.8116 60.4443Z" fill="#3C2A4D"/>
<path opacity="0.1" d="M199.378 22.5832L5.1126 26.8559C2.74901 32.3522 1.18177 38.5666 0.459961 45.0065H195.975C197.247 41.2388 198.191 37.368 198.796 33.4376C199.38 29.654 199.613 25.9941 199.378 22.5832ZM39.9029 36.5921H36.3993C37.3629 36.5921 38.152 37.3066 38.152 38.1775C38.152 39.0484 37.3629 39.7629 36.3993 39.7629H16.1324C15.1706 39.7629 14.3815 39.0484 14.3815 38.1775C14.3815 37.3066 15.1706 36.5921 16.1324 36.5921H19.6378C18.6742 36.5921 17.8869 35.8794 17.8869 35.0085C17.8869 34.1376 18.6742 33.423 19.6378 33.423H17.1342C16.1706 33.423 15.3815 32.7103 15.3815 31.8394C15.3815 30.9685 16.1706 30.254 17.1342 30.254H37.4011C38.3647 30.254 39.152 30.9667 39.152 31.8394C39.152 32.7122 38.3647 33.423 37.4011 33.423H39.9029C40.8665 33.423 41.6538 34.1376 41.6538 35.0085C41.6538 35.8794 40.8665 36.5921 39.9029 36.5921Z" fill="#3C2A4D"/>
<path opacity="0.1" d="M99.1035 142.012C143.986 142.012 180.371 138.665 180.371 134.536C180.371 130.407 143.986 127.06 99.1035 127.06C54.2207 127.06 17.8359 130.407 17.8359 134.536C17.8359 138.665 54.2207 142.012 99.1035 142.012Z" fill="#3C2A4D"/>
<path d="M181.931 72.7841C181.93 72.7714 181.93 72.7587 181.931 72.746C181.931 72.726 181.931 72.7078 181.931 72.6896C181.895 72.4814 181.816 72.2828 181.7 72.106C181.284 71.44 180.705 70.8917 180.017 70.5133C178.817 69.8551 177.168 69.5733 176.688 68.3169C176.54 67.9279 176.537 67.5042 176.464 67.097C176.337 66.4624 176.045 65.8725 175.618 65.3865C175.19 64.9004 174.643 64.5354 174.03 64.3279C173.459 64.137 172.842 64.0843 172.288 63.8479C171.048 63.3207 170.393 62.0207 169.839 60.8189C169.121 59.2674 168.404 57.7153 167.686 56.1626C167.141 56.4372 166.435 56.3081 165.924 55.9644C165.432 55.5979 165.04 55.1133 164.784 54.5554C164.044 53.119 163.726 51.4918 162.857 50.1246C161.988 48.7573 160.252 47.6773 158.717 48.2719C158.417 48.4216 158.108 48.5497 157.79 48.6555C156.475 48.9628 155.021 47.461 153.895 48.19C153.708 48.3099 153.556 48.4767 153.454 48.6737C153.453 48.6616 153.453 48.6494 153.454 48.6373C153.307 48.933 153.225 49.2566 153.214 49.5864C153.214 49.6536 153.214 49.7191 153.214 49.7827C153.214 49.7936 153.214 49.8046 153.214 49.8155C153.214 50.0773 153.23 50.3427 153.234 50.6082C153.238 50.8311 153.221 51.0539 153.183 51.2736V51.2554C153.161 51.3791 153.13 51.5007 153.088 51.6191C152.795 52.4045 151.984 52.919 151.604 53.6572V53.6208C151.562 53.7011 151.525 53.7844 151.494 53.8699C151.426 54.0634 151.391 54.2668 151.39 54.4717C151.357 55.859 152.828 57.1644 152.999 58.6535C153.121 59.708 153.363 60.0462 154.259 60.6425L154.455 60.7734C154.377 60.7734 154.297 60.7844 154.208 60.7862C154.173 60.7868 154.139 60.7905 154.104 60.7971C153.946 60.7535 153.78 60.7456 153.619 60.7739C153.457 60.8022 153.304 60.866 153.17 60.9607C152.483 61.5062 150.857 61.0862 150.135 60.9607C149.414 60.8353 146.941 61.1734 146.595 62.5443C146.25 63.9152 145.657 66.7443 145.657 66.7443C145.657 66.7443 145.657 68.5388 145.437 68.8733C145.429 68.8968 145.429 68.9225 145.437 68.946C145.437 69.4497 145.455 72.4769 144.968 73.2569C144.848 73.4387 144.857 73.8405 144.946 74.335C144.434 74.995 143.952 75.7659 144.037 76.2714C144.194 77.3059 146.292 80.5585 149.299 78.8168C149.299 78.8168 151.01 75.6877 148.857 74.0241L148.95 73.6605C149.601 74.4605 150.083 75.035 150.083 75.035C150.083 75.035 150.108 75.1023 150.148 75.2168H150.083C150.364 75.9814 150.534 76.7822 150.588 77.595C150.58 77.8929 150.526 78.1879 150.428 78.4695H150.484C150.468 78.5313 150.45 78.5931 150.428 78.6513C150.322 78.9583 150.125 79.2255 149.863 79.4167C148.359 80.4822 146.637 88.0911 146.637 88.0911C146.637 88.0911 143.226 100.391 142.545 101.091C141.981 101.665 145.523 103.284 148.181 103.091C148.552 103.069 148.919 102.999 149.272 102.884C149.288 103.065 149.306 103.247 149.325 103.413C149.381 103.958 149.439 104.464 149.475 104.622C149.57 105.018 149.757 109.065 149.757 109.065C149.757 109.065 149.374 111.694 149.466 113.523C149.466 113.649 149.483 113.769 149.494 113.887L149.163 113.938C148.661 115.065 150.728 124.47 151.01 125.261C151.197 125.885 151.302 126.529 151.323 127.18C151.323 127.18 151.141 127.849 151.292 128.214C151.386 128.437 151.447 128.673 151.474 128.914C151.474 128.914 151.35 129.521 151.537 129.918C151.724 130.314 151.506 131.009 151.506 131.009C151.506 131.009 151.444 133.748 150.881 135.239C150.727 135.641 150.683 136.075 150.751 136.499C150.82 136.923 151 137.322 151.272 137.654C151.311 137.706 151.353 137.755 151.399 137.801C151.399 137.801 154.508 137.827 155.055 137.801H155.126C155.346 137.77 155.91 135.305 155.408 134.118C154.906 132.93 155.346 131.469 155.346 131.469V129.309C155.346 129.309 155.91 128.789 155.346 127.672C154.783 126.556 154.875 126.218 154.875 126.218C154.875 126.218 155.503 124.421 154.844 123.843C154.186 123.265 154.97 121.072 154.97 121.072L155.192 113.763C155.076 113.726 154.957 113.695 154.837 113.672C154.824 113.552 154.812 113.429 154.799 113.298C154.67 111.974 154.559 110.174 154.846 109.662C155.134 109.149 155.272 104.673 155.317 101.562L158.183 101.671C158.243 103.125 158.306 104.453 158.346 104.622C158.441 105.018 158.63 109.065 158.63 109.065C158.63 109.065 158.244 111.694 158.337 113.523C158.337 113.649 158.353 113.769 158.364 113.887L158.033 113.938C157.532 115.065 159.599 124.47 159.881 125.261C160.068 125.885 160.173 126.529 160.195 127.18C160.195 127.18 160.013 127.849 160.163 128.214C160.257 128.437 160.318 128.673 160.344 128.914C160.344 128.914 160.221 129.521 160.408 129.918C160.595 130.314 160.377 131.009 160.377 131.009C160.377 131.009 160.315 133.748 159.752 135.239C159.601 135.641 159.558 136.076 159.629 136.499C159.7 136.922 159.882 137.32 160.155 137.65C160.194 137.702 160.237 137.751 160.283 137.798C160.283 137.798 163.392 137.823 163.939 137.798H164.01C164.23 137.767 164.793 135.301 164.292 134.114C163.79 132.927 164.23 131.465 164.23 131.465V129.309C164.23 129.309 164.793 128.789 164.23 127.672C163.666 126.556 163.759 126.218 163.759 126.218C163.759 126.218 164.386 124.421 163.728 123.843C163.07 123.265 163.853 121.072 163.853 121.072L164.079 113.763C163.96 113.725 163.838 113.695 163.715 113.672C163.702 113.552 163.69 113.429 163.677 113.298C163.548 111.974 163.437 110.174 163.724 109.662C163.955 109.242 164.088 106.536 164.148 103.894C164.148 103.713 164.148 103.531 164.162 103.349C165.479 103.294 166.79 103.147 168.086 102.909C168.086 102.909 166.553 97.4891 167.022 96.6073C167.224 96.2273 166.933 94.2038 166.535 92.0238C167.09 92.4733 167.781 92.723 168.495 92.7329C169.181 94.051 171.266 97.0837 172.441 97.551C173.819 98.0964 172.784 93.2601 172.128 92.5601C171.817 92.178 171.556 91.7583 171.35 91.3111C171.368 91.2893 171.388 91.2711 171.406 91.2511C171.424 91.2311 171.439 86.1057 171.124 86.1984C170.81 86.2912 170.435 85.4366 170.435 85.4366L169.464 76.915L169.057 73.3478C169.397 73.5987 169.801 73.7587 170.148 74.0078C171.093 74.7005 171.402 75.9168 171.817 76.9932C172.159 77.8786 172.639 78.7568 173.426 79.3131C174.213 79.8695 175.368 80.0167 176.153 79.4531C176.88 78.924 177.095 77.9695 177.255 77.0986C178.575 77.5622 180.177 76.3223 180.006 74.9677C179.964 74.6332 179.84 74.2677 180.015 73.975C180.364 73.3969 181.469 73.7332 181.833 73.1623C181.894 73.0636 181.926 72.9494 181.924 72.8332C181.929 72.8078 181.931 72.7969 181.931 72.7841ZM164.275 77.4713C164.255 77.7968 164.702 80.4113 165.066 82.4803C164.768 81.1913 164.17 79.8149 162.992 78.8713C162.992 78.8713 162.992 78.8058 162.977 78.6895H162.992C162.992 78.6895 162.942 78.1695 162.935 77.4295C162.937 76.7736 162.986 76.1186 163.081 75.4695V75.4532H163.057C163.057 75.3986 163.072 75.3423 163.081 75.2877C163.153 74.74 163.302 74.2051 163.522 73.6987C163.62 73.5002 163.733 73.3094 163.859 73.1278C164.053 74.8859 164.293 77.1422 164.275 77.4713ZM165.253 83.5294C165.413 84.4221 165.528 85.0494 165.528 85.0494L166.493 91.6783V91.7093C165.973 88.9111 165.31 85.9621 165.31 85.9621C165.377 85.1515 165.358 84.336 165.253 83.5294Z" fill="url(#paint0_linear)"/>
<path d="M153.421 59.0171C153.239 57.3371 151.421 55.8881 151.966 54.2899C152.263 53.419 153.19 52.8863 153.503 52.0209C153.71 51.45 153.617 50.8227 153.619 50.2155C153.621 49.6082 153.763 48.93 154.268 48.5937C155.359 47.8664 156.763 49.3627 158.035 49.0573C158.343 48.9521 158.643 48.8244 158.932 48.6755C160.417 48.0846 162.097 49.1609 162.932 50.5209C163.766 51.8809 164.079 53.5027 164.795 54.9317C165.04 55.4836 165.419 55.9655 165.897 56.3335C166.392 56.6753 167.068 56.8044 167.602 56.5317L169.684 61.168C170.23 62.3625 170.855 63.657 172.048 64.1825C172.582 64.417 173.179 64.4697 173.731 64.6606C174.332 64.8725 174.867 65.2385 175.282 65.7219C175.696 66.2053 175.977 66.7892 176.095 67.4151C176.166 67.8224 176.168 68.2442 176.311 68.6315C176.775 69.8823 178.37 70.1623 179.531 70.8132C180.203 71.1922 180.767 71.7375 181.168 72.3968C181.35 72.7114 181.506 73.1241 181.311 73.4332C180.96 74.0005 179.893 73.6659 179.555 74.2423C179.384 74.5332 179.504 74.8968 179.555 75.2313C179.72 76.5786 178.17 77.8131 176.893 77.3513C176.739 78.2186 176.53 79.1694 175.828 79.6949C175.073 80.2585 173.955 80.1094 173.193 79.5567C172.431 79.004 171.97 78.1295 171.639 77.2477C171.237 76.175 170.937 74.9641 170.022 74.275C169.692 74.0277 169.295 73.8677 168.972 73.6186C168.244 73.0623 167.881 72.1441 167.621 71.2551C167.284 70.146 167.017 69.006 166.53 67.9588C166.043 66.9115 165.272 65.937 164.215 65.4588C163.224 65.0134 162.083 65.0424 161.059 64.6806C159.297 64.0588 157.994 62.577 156.241 61.8789C155.681 61.6434 155.15 61.3431 154.659 60.9843C153.777 60.4043 153.537 60.068 153.421 59.0171Z" fill="#3F3D56"/>
<g opacity="0.1">
<path opacity="0.1" d="M153.585 51.6645C153.622 51.5934 153.655 51.5199 153.683 51.4445C153.888 50.8736 153.797 50.2464 153.799 49.6391C153.799 49.4366 153.818 49.2345 153.856 49.0355C153.688 49.3947 153.606 49.7882 153.617 50.1845C153.616 50.6736 153.674 51.1863 153.585 51.6645Z" fill="black"/>
<path opacity="0.1" d="M175.999 79.124C175.244 79.6858 174.126 79.5385 173.364 78.984C172.602 78.4295 172.139 77.5586 171.817 76.6731C171.415 75.6004 171.117 74.3895 170.201 73.7005C169.872 73.4532 169.473 73.2914 169.152 73.0441C168.424 72.4878 168.061 71.5696 167.799 70.6896C167.462 69.5805 167.197 68.4406 166.708 67.3933C166.219 66.3461 165.452 65.3715 164.393 64.8934C163.404 64.4479 162.263 64.477 161.239 64.1152C159.475 63.4934 158.172 62.0116 156.421 61.3134C155.86 61.0772 155.329 60.777 154.837 60.4189C153.975 59.8244 153.746 59.488 153.619 58.4389C153.437 56.8644 151.837 55.4917 152.086 54.0081C152.046 54.0884 152.01 54.1709 151.979 54.2554C151.434 55.8553 153.252 57.3044 153.434 58.9826C153.552 60.0316 153.797 60.368 154.652 60.9625C155.143 61.3207 155.675 61.6208 156.235 61.857C157.986 62.5552 159.29 64.0388 161.053 64.6588C162.077 65.0224 163.219 64.9915 164.208 65.437C165.266 65.9152 166.026 66.8915 166.522 67.9369C167.019 68.9824 167.284 70.1187 167.613 71.2332C167.881 72.1132 168.232 73.0314 168.966 73.5877C169.295 73.835 169.693 73.9968 170.015 74.2441C170.924 74.9332 171.23 76.1441 171.631 77.2168C171.962 78.0986 172.426 78.9713 173.188 79.524C173.95 80.0767 175.068 80.2258 175.822 79.664C176.304 79.3004 176.55 78.7458 176.711 78.1513C176.568 78.5348 176.321 78.8713 175.999 79.124Z" fill="black"/>
<path opacity="0.1" d="M179.735 73.6714C179.666 73.8018 179.635 73.9496 179.648 74.0969C180.059 73.6914 180.986 73.9296 181.31 73.4078C181.385 73.2788 181.414 73.1283 181.393 72.9805C180.971 73.3805 180.044 73.1423 179.735 73.6714Z" fill="black"/>
<path opacity="0.1" d="M177.064 76.7804C177.03 76.9622 176.995 77.1568 176.951 77.3459C178.064 77.6931 179.35 76.8004 179.531 75.6732C179.09 76.5404 177.999 77.1204 177.064 76.7804Z" fill="black"/>
</g>
<path d="M155.77 59.8917C155.77 59.8917 156.375 61.1134 154.588 61.1389C152.801 61.1644 155.739 69.0733 155.739 69.0733L158.71 72.8551L162.406 70.8551L162.619 65.3388L162.892 62.0062C162.892 62.0062 159.437 60.8844 160.073 59.4007C160.71 57.9171 155.77 59.8917 155.77 59.8917Z" fill="#FBBEBE"/>
<path d="M166.499 92.1383C166.499 92.1383 168.681 94.2856 171.226 91.4365L169.271 89.362H166.799L166.499 92.1383Z" fill="#575A89"/>
<path opacity="0.1" d="M166.735 89.362L166.435 92.1383C166.435 92.1383 168.617 94.2856 171.162 91.4365" fill="black"/>
<path d="M170.406 89.7402C170.406 89.7402 171.284 92.0438 171.921 92.7401C172.557 93.4365 173.557 98.2546 172.224 97.7091C170.891 97.1637 168.346 93.1038 168.193 92.4074C168.041 91.7111 167.982 89.7402 167.982 89.7402H170.406Z" fill="#FBBEBE"/>
<path d="M151.346 101.558L163.102 102.013L161.739 97.0419L155.817 96.9219L151.346 101.558Z" fill="#575A89"/>
<path opacity="0.1" d="M152.981 101.558L164.739 102.013L163.375 97.0419L157.452 96.9219L152.981 101.558Z" fill="black"/>
<path d="M155.194 109.764C154.915 110.282 155.023 112.074 155.148 113.4C155.228 114.243 155.315 114.893 155.315 114.893C155.315 114.893 150.921 116.256 150.256 115.074C150.086 114.774 150.003 114.249 149.974 113.633C149.883 111.814 150.256 109.194 150.256 109.194C150.256 109.194 150.074 105.165 149.983 104.771C149.946 104.613 149.89 104.111 149.836 103.567C149.756 102.76 149.679 101.862 149.679 101.862L155.679 98.68C155.679 98.68 155.679 99.2764 155.668 100.195C155.635 103.078 155.539 109.127 155.194 109.764Z" fill="#FBBEBE"/>
<path opacity="0.1" d="M155.315 114.893C155.315 114.893 150.921 116.256 150.255 115.074C150.086 114.774 150.003 114.249 149.974 113.632C150.883 113.494 153.65 113.112 155.148 113.4C155.228 114.243 155.315 114.893 155.315 114.893Z" fill="black"/>
<path d="M155.466 137.801H155.397C154.868 137.821 151.861 137.801 151.861 137.801C151.817 137.755 151.776 137.707 151.737 137.656C151.472 137.323 151.296 136.927 151.228 136.507C151.159 136.087 151.2 135.656 151.346 135.256C151.892 133.77 151.952 131.043 151.952 131.043C151.952 131.043 152.165 130.347 151.983 129.952C151.801 129.558 151.921 128.952 151.921 128.952C151.893 128.713 151.832 128.478 151.739 128.256C151.588 127.892 151.77 127.225 151.77 127.225C151.749 126.578 151.647 125.937 151.466 125.316C151.194 124.529 149.194 115.165 149.679 114.043C149.679 114.043 153.921 113.316 155.528 113.862L155.315 121.134C155.315 121.134 154.557 123.316 155.194 123.892C155.83 124.469 155.224 126.256 155.224 126.256C155.224 126.256 155.134 126.589 155.679 127.71C156.224 128.832 155.679 129.347 155.679 129.347V131.498C155.679 131.498 155.255 132.952 155.739 134.134C156.223 135.316 155.679 137.763 155.466 137.801Z" fill="#3F3D56"/>
<path d="M163.792 109.764C163.513 110.282 163.621 112.074 163.746 113.4C163.826 114.243 163.913 114.893 163.913 114.893C163.913 114.893 159.519 116.256 158.853 115.074C158.684 114.774 158.601 114.249 158.572 113.633C158.481 111.814 158.853 109.194 158.853 109.194C158.853 109.194 158.672 105.165 158.581 104.771C158.532 104.558 158.446 102.529 158.379 100.709C158.323 99.1564 158.277 97.7528 158.277 97.7528L164.277 98.68C164.277 98.68 164.277 101.318 164.202 104.029C164.137 106.658 164.015 109.353 163.792 109.764Z" fill="#FBBEBE"/>
<path opacity="0.1" d="M163.913 114.893C163.913 114.893 159.519 116.256 158.853 115.074C158.684 114.774 158.601 114.249 158.572 113.632C159.481 113.494 162.248 113.112 163.746 113.4C163.826 114.243 163.913 114.893 163.913 114.893Z" fill="black"/>
<path d="M164.064 137.801H163.995C163.466 137.821 160.459 137.801 160.459 137.801C160.415 137.755 160.374 137.707 160.335 137.656C160.07 137.323 159.894 136.927 159.825 136.507C159.757 136.087 159.798 135.656 159.944 135.256C160.49 133.763 160.544 131.036 160.544 131.036C160.544 131.036 160.757 130.339 160.575 129.945C160.393 129.55 160.513 128.945 160.513 128.945C160.486 128.705 160.424 128.471 160.332 128.249C160.181 127.885 160.363 127.218 160.363 127.218C160.342 126.571 160.24 125.93 160.059 125.309C159.786 124.521 157.786 115.158 158.272 114.036C158.272 114.036 162.513 113.309 164.121 113.854L163.908 121.127C163.908 121.127 163.15 123.309 163.786 123.885C164.422 124.461 163.817 126.249 163.817 126.249C163.817 126.249 163.726 126.581 164.272 127.703C164.817 128.825 164.272 129.339 164.272 129.339V131.49C164.272 131.49 163.848 132.945 164.332 134.127C164.815 135.308 164.277 137.763 164.064 137.801Z" fill="#3F3D56"/>
<path opacity="0.1" d="M158.133 61.3207C160.493 61.3207 162.406 59.4078 162.406 57.0481C162.406 54.6883 160.493 52.7754 158.133 52.7754C155.774 52.7754 153.861 54.6883 153.861 57.0481C153.861 59.4078 155.774 61.3207 158.133 61.3207Z" fill="black"/>
<path d="M158.133 61.1389C160.493 61.1389 162.406 59.226 162.406 56.8662C162.406 54.5065 160.493 52.5936 158.133 52.5936C155.774 52.5936 153.861 54.5065 153.861 56.8662C153.861 59.226 155.774 61.1389 158.133 61.1389Z" fill="#FBBEBE"/>
<path opacity="0.1" d="M149.679 101.862L155.679 98.68C155.679 98.68 155.679 99.2764 155.668 100.195C154.792 100.718 153.47 101.505 152.199 102.249C151.508 102.655 150.834 103.047 150.256 103.376C150.121 103.449 149.981 103.51 149.836 103.558C149.756 102.76 149.679 101.862 149.679 101.862Z" fill="black"/>
<path opacity="0.1" d="M164.277 98.6728C164.277 98.6728 164.277 101.311 164.203 104.022H164.181C163.732 104.038 163.284 104.024 162.837 103.98C162.053 103.896 161.426 103.689 161.201 103.278C160.744 102.478 159.466 101.46 158.386 100.702C158.33 99.1491 158.284 97.7455 158.284 97.7455L164.277 98.6728Z" fill="black"/>
<path d="M163.16 75.5659C163.008 76.7494 162.979 77.9454 163.073 79.1349C165.83 81.4076 165.315 86.1948 165.315 86.1948C165.315 86.1948 167.437 95.8928 166.982 96.7709C166.528 97.6491 168.011 103.044 168.011 103.044C166.747 103.283 165.466 103.43 164.18 103.484C163.732 103.499 163.283 103.486 162.837 103.442C162.053 103.358 161.426 103.151 161.201 102.74C160.353 101.256 156.686 99.0436 156.686 99.0436C156.686 99.0436 154.362 100.436 152.199 101.704C151.508 102.109 150.833 102.502 150.255 102.831C149.786 103.08 149.268 103.222 148.737 103.247C146.164 103.438 142.737 101.827 143.283 101.256C143.95 100.558 147.254 88.3166 147.254 88.3166C147.254 88.3166 148.919 80.7403 150.373 79.6804C150.628 79.4877 150.819 79.222 150.919 78.9186C151.417 77.5349 150.584 75.3168 150.584 75.3168C150.584 75.3168 145.888 69.5296 146.099 69.1951C146.31 68.8606 146.312 67.0751 146.312 67.0751C146.312 67.0751 146.888 64.257 147.221 62.8934C147.554 61.5298 149.948 61.1953 150.644 61.3171C151.341 61.4389 152.915 61.8625 153.581 61.3171C154.246 60.7716 155.37 61.5298 155.37 61.5298L158.13 62.2898L160.611 60.8353C160.611 60.8353 163.099 60.9625 163.311 61.2953C163.524 61.628 166.797 62.2661 166.797 62.2661C168.462 63.3861 168.402 68.7206 168.402 68.7206C168.402 68.7206 164.402 72.2041 163.584 73.9932C163.372 74.4958 163.23 75.0249 163.16 75.5659Z" fill="#575A89"/>
<path d="M167.497 67.9824L168.406 68.7097L169.346 77.1641L170.284 85.6494C170.284 85.6494 170.648 86.4984 170.951 86.4075C171.255 86.3166 171.224 91.4365 171.224 91.4365C171.224 91.4365 167.744 89.2966 166.497 92.1383L165.526 85.2857C165.526 85.2857 164.282 78.2859 164.313 77.7404C164.344 77.195 163.677 71.286 163.677 71.286L167.497 67.9824Z" fill="#575A89"/>
<path d="M146.77 68.3769L146.103 69.1951C146.103 69.1951 146.165 72.7096 145.648 73.5587C145.132 74.4077 147.074 79.3767 147.801 79.0731C148.528 78.7695 150.164 71.0132 150.164 70.9223C150.164 70.8314 146.77 68.3769 146.77 68.3769Z" fill="#575A89"/>
<path d="M146.71 73.3768C146.71 73.3768 144.588 75.5277 144.739 76.5586C144.89 77.5895 146.921 80.8276 149.83 79.0876C149.83 79.0876 152.528 74.0132 146.71 73.3768Z" fill="#575A89"/>
<path opacity="0.1" d="M155.397 137.807C154.868 137.827 151.861 137.807 151.861 137.807C151.817 137.761 151.775 137.712 151.737 137.661C152.506 137.399 154.168 137.007 155.397 137.807Z" fill="black"/>
<path opacity="0.1" d="M163.999 137.807C163.47 137.827 160.463 137.807 160.463 137.807C160.419 137.761 160.377 137.712 160.339 137.661C161.105 137.399 162.766 137.007 163.999 137.807Z" fill="black"/>
<path opacity="0.1" d="M152.413 84.5112C151.95 88.9584 152.103 97.7837 152.199 101.704C151.508 102.109 150.834 102.502 150.255 102.831C149.786 103.08 149.268 103.222 148.737 103.247C148.544 102.062 151.214 89.8856 152.413 84.5112Z" fill="black"/>
<path opacity="0.1" d="M152.981 81.9876C152.968 82.0512 152.748 83.0185 152.414 84.5112C152.544 83.2367 152.726 82.3221 152.981 81.9876Z" fill="black"/>
<path opacity="0.1" d="M160.363 81.5076C160.363 81.5076 162.939 97.6892 155.31 99.6891C155.308 99.6819 160.588 98.88 160.363 81.5076Z" fill="black"/>
<path opacity="0.1" d="M164.181 103.484C163.732 103.499 163.283 103.486 162.837 103.442L160.779 81.3167C162.092 82.1749 163.662 97.8764 164.181 103.484Z" fill="black"/>
<path opacity="0.1" d="M154.952 54.3536C155.088 54.3427 155.226 54.3569 155.357 54.3954C155.55 54.4915 155.724 54.6222 155.87 54.7808C156.107 54.979 156.391 55.1138 156.694 55.1726C156.997 55.2314 157.311 55.2123 157.604 55.1172C157.812 55.0245 158.032 54.9632 158.257 54.9354C158.604 54.9354 158.904 55.1899 159.084 55.4808C159.264 55.7717 159.357 56.1172 159.512 56.4281C159.666 56.739 159.914 57.0335 160.254 57.1099C160.417 57.1162 160.577 57.1532 160.726 57.219C160.818 57.2933 160.888 57.3905 160.93 57.5008C161.214 58.1135 161.439 58.8371 162.044 59.1371C162.267 59.2403 162.51 59.2931 162.755 59.2917C163.005 59.31 163.255 59.2649 163.483 59.1607C163.706 59.0358 163.891 58.8514 164.017 58.628C164.395 58.0026 164.439 57.2281 164.35 56.5026C164.239 55.5875 163.913 54.7115 163.399 53.9463C162.857 53.1723 162.12 52.556 161.262 52.1602C160.405 51.7644 159.457 51.6034 158.517 51.6936C158.189 51.7305 157.864 51.7913 157.544 51.8754C156.388 52.1845 155.254 52.7627 154.552 53.7317C154.382 53.9736 154.196 54.2033 153.994 54.419C154.312 54.3881 154.632 54.3608 154.952 54.3536Z" fill="black"/>
<path d="M154.952 54.1717C155.088 54.1609 155.226 54.1751 155.357 54.2136C155.55 54.3097 155.724 54.4404 155.87 54.599C156.107 54.7972 156.391 54.9319 156.694 54.9908C156.997 55.0496 157.311 55.0305 157.604 54.9354C157.812 54.8427 158.032 54.7814 158.257 54.7536C158.604 54.7536 158.904 55.0081 159.084 55.299C159.264 55.5899 159.357 55.9354 159.512 56.2463C159.666 56.5572 159.914 56.8517 160.254 56.9281C160.417 56.9344 160.577 56.9714 160.726 57.0372C160.818 57.1115 160.888 57.2087 160.93 57.319C161.214 57.9317 161.439 58.6553 162.044 58.9553C162.267 59.0585 162.51 59.1113 162.755 59.1098C163.005 59.1282 163.255 59.0831 163.483 58.9789C163.706 58.8539 163.891 58.6696 164.017 58.4462C164.395 57.8208 164.439 57.0462 164.35 56.3208C164.239 55.4056 163.913 54.5297 163.399 53.7645C162.857 52.9905 162.12 52.3742 161.262 51.9784C160.405 51.5826 159.457 51.4216 158.517 51.5118C158.189 51.5487 157.864 51.6095 157.544 51.6936C156.388 52.0027 155.254 52.5809 154.552 53.5499C154.382 53.7918 154.196 54.0215 153.994 54.2372C154.312 54.2063 154.632 54.179 154.952 54.1717Z" fill="#3F3D56"/>
<path opacity="0.1" d="M150.315 64.3461C150.315 64.3461 150.528 66.0442 149.801 66.4679C149.074 66.8915 150.315 64.3461 150.315 64.3461Z" fill="black"/>
<path opacity="0.1" d="M165.739 77.4986C165.739 77.4986 167.466 74.9532 167.71 75.6805C167.953 76.4077 165.739 77.4986 165.739 77.4986Z" fill="black"/>
<path opacity="0.1" d="M165.861 78.3459C165.861 78.3459 167.564 76.255 167.728 77.0732C167.891 77.8913 165.861 78.3459 165.861 78.3459Z" fill="black"/>
<path opacity="0.1" d="M160.857 75.8568C160.239 75.8655 159.636 75.6671 159.144 75.2932H158.995C158.485 75.7592 157.815 76.0112 157.124 75.9968C156.765 76.0051 156.408 75.9404 156.075 75.8067C155.741 75.6729 155.438 75.4729 155.184 75.2186H154.986C154.463 75.6449 153.805 75.8721 153.13 75.8598C152.455 75.8475 151.807 75.5965 151.299 75.1513L150.588 75.1386C150.588 75.1386 151.421 77.3568 150.923 78.7404L163.073 78.9568C162.979 77.7672 163.009 76.5712 163.161 75.3877V75.3713L162.493 75.3586C162.013 75.6915 161.441 75.8657 160.857 75.8568Z" fill="black"/>
<path opacity="0.1" d="M160.857 76.2204C160.239 76.2292 159.636 76.0307 159.144 75.6568H158.995C158.485 76.1229 157.815 76.3748 157.124 76.3604C156.765 76.3688 156.408 76.3041 156.075 76.1703C155.741 76.0366 155.438 75.8365 155.184 75.5823H154.986C154.463 76.0086 153.805 76.2357 153.13 76.2234C152.455 76.2111 151.807 75.9601 151.299 75.515L150.588 75.5023C150.588 75.5023 151.421 77.7204 150.923 79.104L163.073 79.3204C162.979 78.1309 163.009 76.9348 163.161 75.7513V75.735L162.493 75.7223C162.013 76.0552 161.441 76.2294 160.857 76.2204Z" fill="black"/>
<path d="M160.857 76.0386C160.239 76.0474 159.636 75.8489 159.144 75.475H158.995C158.485 75.9411 157.815 76.193 157.124 76.1786C156.765 76.187 156.408 76.1223 156.075 75.9885C155.741 75.8548 155.438 75.6547 155.184 75.4004H154.986C154.463 75.8268 153.805 76.0539 153.13 76.0416C152.455 76.0293 151.807 75.7783 151.299 75.3332L150.588 75.3204C150.588 75.3204 151.421 77.5386 150.923 78.9222L163.073 79.1386C162.979 77.9491 163.009 76.753 163.161 75.5695V75.5532L162.493 75.5404C162.013 75.8733 161.441 76.0476 160.857 76.0386Z" fill="#3F3D56"/>
<path opacity="0.1" d="M160.317 63.9152C160.317 63.9152 162.875 64.0788 162.892 64.4425C162.908 64.8061 160.317 63.9152 160.317 63.9152Z" fill="black"/>
<path opacity="0.1" d="M154.103 62.3643C154.103 62.3643 151.545 62.528 151.528 62.8916C151.512 63.2552 154.103 62.3643 154.103 62.3643Z" fill="black"/>
<path opacity="0.1" d="M163.879 69.7987C163.853 69.7806 163.828 69.766 163.802 69.7496C164.457 70.3387 164.348 71.626 163.544 72.6878C162.741 73.7495 161.521 74.1914 160.779 73.715C160.802 73.735 160.822 73.7568 160.848 73.7768C161.575 74.3332 162.848 73.8968 163.688 72.7987C164.528 71.7005 164.61 70.3569 163.879 69.7987Z" fill="black"/>
<path opacity="0.1" d="M149.826 72.5514C149.179 71.3842 149.263 70.0951 149.996 69.606C149.968 69.6187 149.939 69.6297 149.912 69.6442C149.108 70.0915 149.003 71.4314 149.668 72.6387C150.334 73.846 151.534 74.4569 152.337 74.0169C152.364 74.0016 152.389 73.9846 152.414 73.9659C151.612 74.3296 150.474 73.7187 149.826 72.5514Z" fill="black"/>
<path opacity="0.1" d="M150.692 62.7079L150.457 63.0716L149.859 62.7534L150.174 62.2698C150.382 62.3681 150.56 62.5192 150.692 62.7079Z" fill="black"/>
<path d="M146.892 76.1641C146.892 76.1641 147.424 73.6586 146.71 72.8623C145.995 72.0659 146.224 67.8915 147.315 67.9824C148.406 68.0733 150.043 71.3751 149.77 72.0732C149.497 72.7714 148.466 76.3459 148.466 76.3459L146.892 76.1641Z" fill="#FBBEBE"/>
<path opacity="0.1" d="M163.999 58.088C163.873 58.3114 163.688 58.4958 163.464 58.6208C163.237 58.725 162.987 58.77 162.737 58.7517C162.492 58.7531 162.249 58.7003 162.026 58.5971C161.421 58.2953 161.195 57.5717 160.912 56.9608C160.876 56.8506 160.812 56.7516 160.726 56.6735C160.579 56.6066 160.42 56.5677 160.259 56.559C159.919 56.4826 159.673 56.1863 159.517 55.8772C159.361 55.5681 159.268 55.2263 159.09 54.9299C158.912 54.6336 158.61 54.3736 158.263 54.3845C158.037 54.4144 157.816 54.4788 157.61 54.5754C157.316 54.6698 157.002 54.6883 156.699 54.6292C156.396 54.57 156.113 54.4352 155.875 54.2372C155.729 54.0785 155.556 53.9479 155.363 53.8518C155.231 53.8133 155.094 53.7991 154.957 53.8099C154.748 53.8099 154.541 53.8299 154.332 53.8463C154.228 53.9821 154.117 54.112 153.999 54.2354C154.317 54.2081 154.637 54.1808 154.957 54.1736C155.094 54.1627 155.231 54.1769 155.363 54.2154C155.556 54.3115 155.729 54.4422 155.875 54.6008C156.113 54.7988 156.396 54.9337 156.699 54.9928C157.002 55.0519 157.316 55.0334 157.61 54.939C157.816 54.8424 158.037 54.7781 158.263 54.7481C158.61 54.7481 158.91 55.0026 159.09 55.2935C159.27 55.5845 159.363 55.9299 159.517 56.2408C159.672 56.5517 159.919 56.8462 160.259 56.9226C160.42 56.9313 160.579 56.9702 160.726 57.0372C160.818 57.1115 160.888 57.2087 160.93 57.319C161.213 57.9317 161.439 58.6553 162.044 58.9553C162.267 59.0585 162.51 59.1113 162.755 59.1098C163.005 59.1282 163.255 59.0831 163.482 58.9789C163.706 58.8539 163.891 58.6696 164.017 58.4462C164.299 57.9323 164.426 57.3472 164.381 56.7626C164.367 57.2295 164.236 57.6854 163.999 58.088Z" fill="black"/>
<path d="M147.697 78.1513C148.601 78.1513 149.333 77.6548 149.333 77.0422C149.333 76.4297 148.601 75.9332 147.697 75.9332C146.793 75.9332 146.061 76.4297 146.061 77.0422C146.061 77.6548 146.793 78.1513 147.697 78.1513Z" fill="#575A89"/>
<path d="M94.3601 138.778C125.338 138.778 150.45 113.665 150.45 82.6876C150.45 51.71 125.338 26.5977 94.3601 26.5977C63.3826 26.5977 38.2703 51.71 38.2703 82.6876C38.2703 113.665 63.3826 138.778 94.3601 138.778Z" fill="#3C2A4D"/>
<path d="M123.79 110.874C123.79 119.729 109.871 111.631 94.9473 111.631C80.024 111.631 64.9297 119.394 64.9297 110.54C64.9297 105.491 69.7405 98.4692 76.6422 93.3693C81.8421 89.5257 88.2274 86.773 94.6419 86.773C101.238 86.773 107.7 89.753 112.854 93.8438C119.36 99.0019 123.79 105.933 123.79 110.874Z" fill="#444053"/>
<path d="M112.853 93.8401C104.92 92.6456 90.573 91.1892 76.6423 93.3656C81.8422 89.522 88.2276 86.7693 94.642 86.7693C101.236 86.7693 107.698 89.7493 112.853 93.8401Z" fill="#F6F8FB"/>
<path opacity="0.05" d="M64.9299 43.0938C64.9299 43.0938 48.0338 53.8954 48.172 70.7914C48.3102 87.6875 64.9299 43.0938 64.9299 43.0938Z" fill="black"/>
<path d="M150.428 12.5871C150.428 12.5871 135.119 11.6653 136.925 22.3923C136.925 22.3923 136.561 24.2868 138.285 25.1487C138.285 25.1487 138.312 24.3541 139.854 24.6232C140.403 24.7151 140.961 24.742 141.517 24.7032C142.268 24.6521 142.982 24.3572 143.55 23.8632C143.55 23.8632 147.853 22.0869 149.528 15.0525C149.528 15.0525 150.766 13.518 150.717 13.1252L148.133 14.227C148.133 14.227 149.015 16.0906 148.315 17.6397C148.315 17.6397 148.232 14.2961 147.735 14.367C147.635 14.3834 146.394 15.0125 146.394 15.0125C146.394 15.0125 147.912 18.2597 146.757 20.6178C146.757 20.6178 147.192 16.6179 145.91 15.247L144.092 16.3088C144.092 16.3088 145.866 19.6615 144.663 22.3978C144.663 22.3978 144.972 18.2015 143.71 16.567L142.061 17.8524C142.061 17.8524 143.728 21.1578 142.712 23.4269C142.712 23.4269 142.579 18.5415 141.705 18.1724C141.705 18.1724 140.263 19.4451 140.043 19.9669C140.043 19.9669 141.185 22.3651 140.477 23.6305C140.477 23.6305 140.043 20.376 139.686 20.3578C139.686 20.3578 138.25 22.5142 138.099 23.9941C138.099 23.9941 138.163 21.7942 139.337 20.1524C139.337 20.1524 137.948 20.3906 137.139 21.2924C137.139 21.2924 137.363 19.7669 139.685 19.6342C139.685 19.6342 140.872 17.9979 141.19 17.8997C141.19 17.8997 138.872 17.7052 137.466 18.3288C137.466 18.3288 138.703 16.8906 141.614 17.5433L143.25 16.2161C143.25 16.2161 140.199 15.7979 138.905 16.2597C138.905 16.2597 140.394 14.987 143.688 15.9143L145.461 14.8543C145.461 14.8543 142.859 14.2943 141.308 14.4907C141.308 14.4907 142.944 13.6089 145.979 14.5652L147.252 13.9961C147.252 13.9961 145.344 13.6216 144.786 13.5634C144.228 13.5052 144.199 13.3489 144.199 13.3489C145.41 13.1519 146.652 13.2961 147.786 13.7652C147.786 13.7652 150.473 12.7561 150.428 12.5871Z" fill="#3C2A4D"/>
<path d="M134.727 7.81805C134.727 7.81805 127.818 7.39987 128.625 12.2471C128.625 12.2471 128.463 13.1034 129.239 13.4925C129.239 13.4925 129.25 13.1289 129.949 13.2561C130.197 13.297 130.449 13.3092 130.699 13.2925C131.039 13.2683 131.362 13.135 131.619 12.9125C131.619 12.9125 133.563 12.1089 134.319 8.93075C134.319 8.93075 134.879 8.23804 134.865 8.05986L133.698 8.55803C133.698 8.55803 134.098 9.39983 133.783 10.0998C133.783 10.0998 133.745 8.58894 133.521 8.6253C133.476 8.6253 132.914 8.91621 132.914 8.91621C132.914 8.91621 133.601 10.3835 133.083 11.4489C133.083 11.4489 133.279 9.64165 132.701 9.02166L131.879 9.50165C131.879 9.50165 132.681 11.018 132.138 12.2543C132.138 12.2543 132.276 10.358 131.707 9.61983L130.961 10.1998C130.961 10.1998 131.714 11.6925 131.256 12.718C131.256 12.718 131.196 10.5107 130.799 10.3435C130.799 10.3435 130.149 10.918 130.049 11.1543C130.049 11.1543 130.565 12.2452 130.245 12.8107C130.245 12.8107 130.049 11.3398 129.881 11.3343C129.881 11.3343 129.232 12.3071 129.165 12.9707C129.196 12.3531 129.389 11.7545 129.723 11.2343C129.349 11.3051 129.004 11.484 128.73 11.7489C128.73 11.7489 128.83 11.0598 129.883 10.9998C129.883 10.9998 130.419 10.2616 130.563 10.2162C130.563 10.2162 129.516 10.1289 128.881 10.4107C128.881 10.4107 129.439 9.75983 130.756 10.0471L131.483 9.44893C131.483 9.44893 130.105 9.26711 129.519 9.46711C129.519 9.46711 130.192 8.89257 131.681 9.31256L132.481 8.83257C132.481 8.83257 131.307 8.57985 130.605 8.67076C130.605 8.67076 131.345 8.27258 132.716 8.7053L133.288 8.44712C133.288 8.44712 132.427 8.27804 132.176 8.25258C131.925 8.22713 131.909 8.15622 131.909 8.15622C132.454 8.06543 133.015 8.12838 133.527 8.33804C133.527 8.33804 134.747 7.89441 134.727 7.81805Z" fill="#3C2A4D"/>
<path opacity="0.1" d="M195.104 132.727C197.808 132.727 200 132.356 200 131.899C200 131.443 197.808 131.072 195.104 131.072C192.399 131.072 190.207 131.443 190.207 131.899C190.207 132.356 192.399 132.727 195.104 132.727Z" fill="#3C2A4D"/>
<path opacity="0.1" d="M8.50345 146.488C11.2076 146.488 13.3997 146.118 13.3997 145.661C13.3997 145.204 11.2076 144.834 8.50345 144.834C5.79932 144.834 3.60718 145.204 3.60718 145.661C3.60718 146.118 5.79932 146.488 8.50345 146.488Z" fill="#3C2A4D"/>
<path opacity="0.1" d="M36.9266 147.526C39.6307 147.526 41.8228 147.156 41.8228 146.699C41.8228 146.242 39.6307 145.872 36.9266 145.872C34.2224 145.872 32.0303 146.242 32.0303 146.699C32.0303 147.156 34.2224 147.526 36.9266 147.526Z" fill="#3C2A4D"/>
<path d="M184.388 142.001C188.425 142.001 191.699 141.448 191.699 140.765C191.699 140.082 188.425 139.528 184.388 139.528C180.35 139.528 177.077 140.082 177.077 140.765C177.077 141.448 180.35 142.001 184.388 142.001Z" fill="#3C2A4D"/>
<path d="M187.409 138.745C187.743 138.472 187.986 138.105 188.107 137.692C188.197 137.276 188.018 136.774 187.62 136.621C187.173 136.45 186.695 136.761 186.333 137.074C185.971 137.387 185.555 137.743 185.08 137.678C185.324 137.457 185.507 137.176 185.61 136.863C185.713 136.551 185.734 136.217 185.669 135.894C185.649 135.76 185.592 135.634 185.506 135.53C185.257 135.265 184.808 135.378 184.509 135.587C183.564 136.252 183.3 137.536 183.295 138.692C183.2 138.276 183.28 137.841 183.279 137.419C183.277 136.998 183.159 136.51 182.799 136.287C182.575 136.167 182.324 136.108 182.071 136.116C181.646 136.099 181.173 136.141 180.882 136.452C180.519 136.839 180.615 137.487 180.929 137.907C181.244 138.327 181.72 138.599 182.159 138.892C182.511 139.102 182.812 139.388 183.038 139.73C183.065 139.778 183.087 139.829 183.104 139.881H185.768C186.364 139.578 186.916 139.196 187.409 138.745Z" fill="#3C2A4D"/>
<path d="M10.7888 123.5C10.7888 123.5 11.787 124.805 10.327 126.772C8.86707 128.739 7.66345 130.409 8.14526 131.638C8.14526 131.638 10.347 127.976 12.1452 127.923C13.9433 127.87 12.7597 125.701 10.7888 123.5Z" fill="#3C2A4D"/>
<path opacity="0.1" d="M10.7889 123.5C10.8755 123.626 10.9441 123.763 10.9925 123.909C12.7416 125.963 13.6725 127.881 11.9925 127.929C10.4252 127.974 8.538 130.774 8.09619 131.481C8.11164 131.536 8.12984 131.59 8.15074 131.643C8.15074 131.643 10.3525 127.981 12.1507 127.929C13.9488 127.876 12.7597 125.701 10.7889 123.5Z" fill="black"/>
<path d="M12.6452 125.163C12.6452 125.623 12.5925 125.996 12.5289 125.996C12.4652 125.996 12.4143 125.632 12.4143 125.163C12.4143 124.694 12.4779 124.92 12.5434 124.92C12.6089 124.92 12.6452 124.703 12.6452 125.163Z" fill="#FFD037"/>
<path d="M13.2744 125.712C12.8708 125.932 12.5199 126.065 12.489 126.009C12.4581 125.952 12.7617 125.73 13.1653 125.51C13.569 125.29 13.409 125.45 13.4399 125.51C13.4708 125.57 13.6853 125.492 13.2744 125.712Z" fill="#FFD037"/>
<path d="M5.5128 123.5C5.5128 123.5 4.51464 124.805 5.9728 126.772C7.43095 128.739 8.63638 130.409 8.15457 131.638C8.15457 131.638 5.95098 127.976 4.15465 127.923C2.35832 127.87 3.54011 125.701 5.5128 123.5Z" fill="#3C2A4D"/>
<path opacity="0.1" d="M5.51251 123.5C5.42503 123.625 5.35643 123.763 5.30888 123.909C3.55982 125.963 2.62711 127.881 4.3089 127.929C5.87432 127.974 7.76338 130.774 8.20337 131.481C8.18854 131.536 8.17094 131.59 8.15065 131.643C8.15065 131.643 5.94705 127.981 4.15072 127.929C2.35439 127.876 3.53982 125.701 5.51251 123.5Z" fill="black"/>
<path d="M3.65625 125.163C3.65625 125.623 3.70716 125.996 3.77079 125.996C3.83443 125.996 3.88534 125.632 3.88534 125.163C3.88534 124.694 3.8217 124.92 3.75807 124.92C3.69443 124.92 3.65625 124.703 3.65625 125.163Z" fill="#FFD037"/>
<path d="M3.01824 125.712C3.42187 125.932 3.77459 126.065 3.8055 126.009C3.8364 125.952 3.53277 125.73 3.12914 125.51C2.72551 125.29 2.88369 125.45 2.8546 125.51C2.82551 125.57 2.61461 125.492 3.01824 125.712Z" fill="#FFD037"/>
<path d="M3.97437 131.472C3.97437 131.472 6.76704 131.387 7.61066 130.787C8.45428 130.187 11.9069 129.472 12.116 130.423C12.3251 131.374 16.3123 135.205 13.1597 135.23C10.007 135.256 5.83433 134.738 4.99435 134.227C4.15436 133.716 3.97437 131.472 3.97437 131.472Z" fill="#A8A8A8"/>
<path opacity="0.2" d="M13.2124 134.905C10.0597 134.93 5.88706 134.412 5.04707 133.901C4.40708 133.512 4.15254 132.114 4.06709 131.469H3.97437C3.97437 131.469 4.15618 133.721 4.99071 134.232C5.82524 134.743 10.0033 135.261 13.156 135.236C14.0651 135.236 14.3796 134.903 14.3633 134.425C14.236 134.718 13.8905 134.899 13.2124 134.905Z" fill="black"/>
<path d="M74.4187 75.3332C75.4859 75.2732 80.5095 74.895 83.7003 73.075C84.2128 72.7736 84.7916 72.6031 85.3857 72.5787C86.4002 72.5496 87.5675 72.9732 86.8202 75.3441C85.6094 79.2222 78.5786 83.5858 74.215 83.344C70.0187 83.1112 65.0407 81.4204 61.7535 75.475C61.4385 74.903 61.2834 74.2568 61.3044 73.6041C61.3426 72.4042 61.7789 70.9005 64.0316 72.5769C67.0752 74.8405 72.8496 75.2696 74.0078 75.3332C74.1446 75.3405 74.2818 75.3405 74.4187 75.3332Z" fill="#444053"/>
<path d="M114.781 75.3332C115.849 75.2732 120.872 74.895 124.063 73.075C124.576 72.7736 125.154 72.6031 125.749 72.5787C126.763 72.5496 127.93 72.9732 127.183 75.3441C125.972 79.2222 118.941 83.5858 114.578 83.344C110.382 83.1112 105.403 81.4204 102.116 75.475C101.801 74.903 101.646 74.2568 101.667 73.6041C101.705 72.4042 102.142 70.9005 104.394 72.5769C107.438 74.8405 113.212 75.2696 114.371 75.3332C114.507 75.3405 114.645 75.3405 114.781 75.3332Z" fill="#444053"/>
</g>
<defs>
<linearGradient id="paint0_linear" x1="162.204" y1="137.814" x2="162.204" y2="47.99" gradientUnits="userSpaceOnUse">
<stop stop-color="#808080" stop-opacity="0.25"/>
<stop offset="0.54" stop-color="#808080" stop-opacity="0.12"/>
<stop offset="1" stop-color="#808080" stop-opacity="0.1"/>
</linearGradient>
<clipPath id="clip0">
<rect width="200" height="147.526" fill="white"/>
</clipPath>
</defs>
</svg>
