<svg viewBox="0 0 150 150" fill="none" xmlns="http://www.w3.org/2000/svg">
<path d="M136.816 41.8945H116.863C109.235 17.6408 86.5403 0 59.8014 0C26.8269 0 0 26.8269 0 59.8014C0 71.2764 3.23086 82.3377 9.36592 91.9395L0.272754 116.543C-0.321973 118.152 0.0741212 119.961 1.2873 121.174C2.12637 122.013 3.2499 122.461 4.39541 122.461C4.90635 122.461 5.42168 122.372 5.91826 122.188L31.7666 112.635C37.1467 115.493 42.9407 117.503 48.9258 118.607V122.461C48.9258 129.73 54.8399 135.645 62.1094 135.645H124.39L143.025 149.163C143.79 149.717 144.695 150 145.606 150C146.288 150 146.972 149.842 147.602 149.52C149.074 148.77 150 147.258 150 145.605V55.0781C150 47.8087 144.086 41.8945 136.816 41.8945ZM32.1328 103.42C31.6189 103.42 31.1027 103.51 30.6094 103.692L11.8263 110.635L18.385 92.8887C18.8827 91.5422 18.6911 90.0378 17.8723 88.8586C11.9303 80.3016 8.78906 70.2536 8.78906 59.8014C8.78906 31.6731 31.6731 8.78906 59.8014 8.78906C87.9299 8.78906 110.814 31.6728 110.814 59.8014C110.814 87.9296 87.9299 110.813 59.8014 110.813C50.8444 110.813 42.0372 108.461 34.3312 104.009C33.6548 103.619 32.896 103.42 32.1328 103.42ZM141.211 136.989L128.396 127.693C127.645 127.149 126.742 126.856 125.815 126.856H62.1094C59.6862 126.856 57.7148 124.884 57.7148 122.461V119.563C58.4095 119.587 59.1047 119.602 59.8011 119.602C92.7759 119.602 119.602 92.7759 119.602 59.8014C119.602 56.702 119.365 53.6572 118.908 50.6836H136.816C139.24 50.6836 141.211 52.655 141.211 55.0781V136.989Z" fill="#3C2A4D"/>
<path d="M64.4534 81.4456V38.0859C64.4534 35.659 62.4858 33.6914 60.0589 33.6914C57.6319 33.6914 55.6644 35.659 55.6644 38.0859V81.4453C55.6644 83.8723 57.6319 85.8398 60.0589 85.8398C62.4858 85.8398 64.4534 83.8726 64.4534 81.4456Z" fill="#3C2A4D"/>
<path d="M77.637 69.3809C80.064 69.3809 82.0315 67.4133 82.0315 64.9863V54.5452C82.0315 52.1183 80.064 50.1507 77.637 50.1507C75.2101 50.1507 73.2425 52.1183 73.2425 54.5452V64.9863C73.2425 67.4133 75.2101 69.3809 77.637 69.3809Z" fill="#3C2A4D"/>
<path d="M42.4805 50.1507C40.0535 50.1507 38.0859 52.1183 38.0859 54.5452V64.9863C38.0859 67.4133 40.0535 69.3809 42.4805 69.3809C44.9074 69.3809 46.875 67.4133 46.875 64.9863V54.5452C46.875 52.1183 44.9074 50.1507 42.4805 50.1507Z" fill="#3C2A4D"/>
<path d="M95.2151 76.4118C97.6421 76.4118 99.6097 74.4442 99.6097 72.0173V47.5143C99.6097 45.0873 97.6421 43.1197 95.2151 43.1197C92.7882 43.1197 90.8206 45.0873 90.8206 47.5143V72.0173C90.8206 74.4442 92.7882 76.4118 95.2151 76.4118Z" fill="#3C2A4D"/>
<path d="M24.9023 43.1197C22.4754 43.1197 20.5078 45.0873 20.5078 47.5143V72.0173C20.5078 74.4442 22.4754 76.4118 24.9023 76.4118C27.3293 76.4118 29.2969 74.4442 29.2969 72.0173V47.5143C29.2969 45.0873 27.3293 43.1197 24.9023 43.1197Z" fill="#3C2A4D"/>
</svg>
